<svg width="326" height="262" viewBox="0 0 326 262" fill="none" xmlns="http://www.w3.org/2000/svg">
<rect x="28.1033" y="21.8209" width="245.905" height="10.9106" fill="#C7763B"/>
<rect x="28.1033" y="218.212" width="245.905" height="10.9106" fill="#C7763B"/>
<rect x="21.0779" y="21.8209" width="7.02586" height="218.212" fill="#C67441"/>
<rect x="7.02594" y="10.9104" width="7.02586" height="218.212" fill="#C67441"/>
<rect y="10.9104" width="7.02586" height="240.033" fill="#853F39"/>
<rect x="28.1033" y="21.8209" width="7.02586" height="10.9106" fill="#853F39"/>
<rect x="7.02594" width="7.02586" height="10.9106" fill="#853F39"/>
<rect x="14.0519" width="7.02586" height="10.9106" fill="#853F39"/>
<rect x="21.0779" y="10.9104" width="7.02586" height="10.9106" fill="#853F39"/>
<rect x="35.1295" y="21.8209" width="7.02586" height="10.9106" fill="#853F39"/>
<rect x="7.02594" y="250.944" width="7.02586" height="10.9106" fill="#853F39"/>
<rect x="14.0519" y="250.944" width="7.02586" height="10.9106" fill="#853F39"/>
<rect x="21.0779" y="240.033" width="7.02586" height="10.9106" fill="#853F39"/>
<rect x="7.02594" y="229.123" width="7.02586" height="10.9106" fill="#853F39"/>
<rect x="14.0519" y="229.123" width="7.02586" height="10.9106" fill="#853F39"/>
<rect x="49.1808" y="21.8209" width="7.02586" height="10.9106" fill="#853F39"/>
<rect x="35.1295" y="218.212" width="7.02586" height="10.9106" fill="#853F39"/>
<rect x="42.1549" y="218.212" width="7.02586" height="10.9106" fill="#853F39"/>
<rect x="56.2068" y="218.212" width="7.02586" height="10.9106" fill="#853F39"/>
<rect x="7.02594" y="240.033" width="14.0517" height="10.9106" fill="#C67441"/>
<rect x="35.1295" y="32.7318" width="7.02586" height="10.9106" fill="#C67441"/>
<rect x="28.1033" y="43.6423" width="7.02586" height="10.9106" fill="#C67441"/>
<rect x="35.1295" y="54.5527" width="7.02586" height="10.9106" fill="#C67441"/>
<rect x="35.1295" y="76.3743" width="7.02586" height="10.9106" fill="#C67441"/>
<rect x="28.1033" y="65.4637" width="7.02586" height="10.9106" fill="#C67441"/>
<rect x="28.1033" y="87.2841" width="7.02586" height="10.9106" fill="#C67441"/>
<rect x="35.1295" y="32.7318" width="7.02586" height="10.9106" fill="#C67441"/>
<rect x="28.1033" y="43.6423" width="7.02586" height="10.9106" fill="#C67441"/>
<rect x="35.1295" y="54.5527" width="7.02586" height="10.9106" fill="#C67441"/>
<rect x="35.1295" y="76.3743" width="7.02586" height="10.9106" fill="#C67441"/>
<rect x="28.1033" y="65.4637" width="7.02586" height="10.9106" fill="#C67441"/>
<rect x="28.1033" y="87.2841" width="7.02586" height="10.9106" fill="#C67441"/>
<rect x="35.1295" y="98.1952" width="7.02586" height="10.9106" fill="#C67441"/>
<rect x="28.1033" y="109.106" width="7.02586" height="10.9106" fill="#C67441"/>
<rect x="35.1295" y="120.016" width="7.02586" height="10.9106" fill="#C67441"/>
<rect x="35.1295" y="141.837" width="7.02586" height="10.9106" fill="#C67441"/>
<rect x="28.1033" y="130.927" width="7.02586" height="10.9106" fill="#C67441"/>
<rect x="28.1033" y="152.749" width="7.02586" height="10.9106" fill="#C67441"/>
<rect x="35.1295" y="163.659" width="7.02586" height="10.9106" fill="#C67441"/>
<rect x="35.1295" y="185.48" width="7.02586" height="10.9106" fill="#C67441"/>
<rect x="35.1295" y="207.302" width="7.02586" height="10.9106" fill="#C67441"/>
<rect x="28.1033" y="174.57" width="7.02586" height="10.9106" fill="#C67441"/>
<rect x="28.1033" y="196.391" width="7.02586" height="10.9106" fill="#C67441"/>
<rect width="7.02586" height="10.9106" transform="matrix(-1 0 0 1 35.1295 32.7318)" fill="#F2BE85"/>
<rect width="7.02586" height="10.9106" transform="matrix(-1 0 0 1 42.1549 43.6423)" fill="#F2BE85"/>
<rect width="7.02586" height="10.9106" transform="matrix(-1 0 0 1 35.1295 54.5527)" fill="#F2BE85"/>
<rect width="7.02586" height="10.9106" transform="matrix(-1 0 0 1 35.1295 76.3743)" fill="#F2BE85"/>
<rect width="7.02586" height="10.9106" transform="matrix(-1 0 0 1 42.1549 65.4637)" fill="#F2BE85"/>
<rect width="7.02586" height="10.9106" transform="matrix(-1 0 0 1 42.1549 87.2841)" fill="#F2BE85"/>
<rect width="7.02586" height="10.9106" transform="matrix(-1 0 0 1 35.1295 32.7318)" fill="#F2BE85"/>
<rect width="7.02586" height="10.9106" transform="matrix(-1 0 0 1 42.1549 43.6423)" fill="#F2BE85"/>
<rect width="7.02586" height="10.9106" transform="matrix(-1 0 0 1 35.1295 54.5527)" fill="#F2BE85"/>
<rect width="7.02586" height="10.9106" transform="matrix(-1 0 0 1 35.1295 76.3743)" fill="#F2BE85"/>
<rect width="7.02586" height="10.9106" transform="matrix(-1 0 0 1 42.1549 65.4637)" fill="#F2BE85"/>
<rect width="7.02586" height="10.9106" transform="matrix(-1 0 0 1 42.1549 87.2841)" fill="#F2BE85"/>
<rect width="7.02586" height="10.9106" transform="matrix(-1 0 0 1 35.1295 98.1952)" fill="#F2BE85"/>
<rect width="7.02586" height="10.9106" transform="matrix(-1 0 0 1 42.1549 109.106)" fill="#F2BE85"/>
<rect width="7.02586" height="10.9106" transform="matrix(-1 0 0 1 35.1295 120.016)" fill="#F2BE85"/>
<rect width="7.02586" height="10.9106" transform="matrix(-1 0 0 1 35.1295 141.837)" fill="#F2BE85"/>
<rect width="7.02586" height="10.9106" transform="matrix(-1 0 0 1 42.1549 130.927)" fill="#F2BE85"/>
<rect width="7.02586" height="10.9106" transform="matrix(-1 0 0 1 42.1549 152.749)" fill="#F2BE85"/>
<rect width="7.02586" height="10.9106" transform="matrix(-1 0 0 1 35.1295 163.659)" fill="#F2BE85"/>
<rect width="7.02586" height="10.9106" transform="matrix(-1 0 0 1 35.1295 185.48)" fill="#F2BE85"/>
<rect width="7.02586" height="10.9106" transform="matrix(-1 0 0 1 35.1295 207.302)" fill="#F2BE85"/>
<rect width="7.02586" height="10.9106" transform="matrix(-1 0 0 1 42.1549 174.57)" fill="#F2BE85"/>
<rect width="7.02586" height="10.9106" transform="matrix(-1 0 0 1 42.1549 196.391)" fill="#F2BE85"/>
<rect width="7.02586" height="10.9106" transform="matrix(-1 0 0 1 290.87 21.8209)" fill="#F2BE85"/>
<rect width="7.02586" height="10.9106" transform="matrix(-1 0 0 1 297.896 32.7318)" fill="#F2BE85"/>
<rect width="7.02586" height="10.9106" transform="matrix(-1 0 0 1 290.87 43.6423)" fill="#F2BE85"/>
<rect width="7.02586" height="10.9106" transform="matrix(-1 0 0 1 290.87 65.4637)" fill="#F2BE85"/>
<rect width="7.02586" height="10.9106" transform="matrix(-1 0 0 1 297.896 54.5527)" fill="#F2BE85"/>
<rect width="7.02586" height="10.9106" transform="matrix(-1 0 0 1 297.896 76.3743)" fill="#F2BE85"/>
<rect width="7.02586" height="10.9106" transform="matrix(-1 0 0 1 290.87 21.8209)" fill="#F2BE85"/>
<rect width="7.02586" height="10.9106" transform="matrix(-1 0 0 1 297.896 32.7318)" fill="#F2BE85"/>
<rect width="7.02586" height="10.9106" transform="matrix(-1 0 0 1 290.87 43.6423)" fill="#F2BE85"/>
<rect width="7.02586" height="10.9106" transform="matrix(-1 0 0 1 290.87 65.4637)" fill="#F2BE85"/>
<rect width="7.02586" height="10.9106" transform="matrix(-1 0 0 1 297.896 54.5527)" fill="#F2BE85"/>
<rect width="7.02586" height="10.9106" transform="matrix(-1 0 0 1 297.896 76.3743)" fill="#F2BE85"/>
<rect width="7.02586" height="10.9106" transform="matrix(-1 0 0 1 290.87 87.2841)" fill="#F2BE85"/>
<rect width="7.02586" height="10.9106" transform="matrix(-1 0 0 1 297.896 98.1952)" fill="#F2BE85"/>
<rect width="7.02586" height="10.9106" transform="matrix(-1 0 0 1 290.87 109.106)" fill="#F2BE85"/>
<rect width="7.02586" height="10.9106" transform="matrix(-1 0 0 1 290.87 130.927)" fill="#F2BE85"/>
<rect width="7.02586" height="10.9106" transform="matrix(-1 0 0 1 297.896 120.016)" fill="#F2BE85"/>
<rect width="7.02586" height="10.9106" transform="matrix(-1 0 0 1 297.896 141.837)" fill="#F2BE85"/>
<rect width="7.02586" height="10.9106" transform="matrix(-1 0 0 1 290.87 152.749)" fill="#F2BE85"/>
<rect width="7.02586" height="10.9106" transform="matrix(-1 0 0 1 290.87 174.57)" fill="#F2BE85"/>
<rect width="7.02586" height="10.9106" transform="matrix(-1 0 0 1 290.87 196.391)" fill="#F2BE85"/>
<rect width="7.02586" height="10.9106" transform="matrix(-1 0 0 1 297.896 163.659)" fill="#F2BE85"/>
<rect width="7.02586" height="10.9106" transform="matrix(-1 0 0 1 297.896 185.48)" fill="#F2BE85"/>
<rect width="241.69" height="10.9106" transform="matrix(-1 0 0 1 297.896 21.8209)" fill="#C7763B"/>
<rect width="220.612" height="10.9106" transform="matrix(-1 0 0 1 297.896 218.212)" fill="#C7763B"/>
<rect width="7.02586" height="218.212" transform="matrix(-1 0 0 1 304.922 21.8209)" fill="#C67441"/>
<rect width="7.02586" height="218.212" transform="matrix(-1 0 0 1 318.974 10.9104)" fill="#C67441"/>
<rect width="7.02586" height="240.033" transform="matrix(-1 0 0 1 326 10.9104)" fill="#853F39"/>
<rect width="7.02586" height="10.9106" transform="matrix(-1 0 0 1 297.896 21.8209)" fill="#853F39"/>
<rect width="7.02586" height="10.9106" transform="matrix(-1 0 0 1 318.974 0)" fill="#853F39"/>
<rect width="7.02586" height="10.9106" transform="matrix(-1 0 0 1 311.948 0)" fill="#853F39"/>
<rect width="7.02586" height="10.9106" transform="matrix(-1 0 0 1 304.922 10.9104)" fill="#853F39"/>
<rect width="7.02586" height="10.9106" transform="matrix(-1 0 0 1 290.87 21.8209)" fill="#853F39"/>
<rect width="7.02586" height="10.9106" transform="matrix(-1 0 0 1 318.974 250.944)" fill="#853F39"/>
<rect width="7.02586" height="10.9106" transform="matrix(-1 0 0 1 311.948 250.944)" fill="#853F39"/>
<rect width="7.02586" height="10.9106" transform="matrix(-1 0 0 1 304.922 240.033)" fill="#853F39"/>
<rect width="7.02586" height="10.9106" transform="matrix(-1 0 0 1 318.974 229.123)" fill="#853F39"/>
<rect width="7.02586" height="10.9106" transform="matrix(-1 0 0 1 311.948 229.123)" fill="#853F39"/>
<rect width="14.0517" height="10.9106" transform="matrix(-1 0 0 1 318.974 240.033)" fill="#C67441"/>
<rect width="7.02586" height="10.9106" transform="matrix(-1 0 0 1 290.87 32.7318)" fill="#C67441"/>
<rect width="7.02586" height="10.9106" transform="matrix(-1 0 0 1 297.896 43.6423)" fill="#C67441"/>
<rect width="7.02586" height="10.9106" transform="matrix(-1 0 0 1 290.87 54.5527)" fill="#C67441"/>
<rect width="7.02586" height="10.9106" transform="matrix(-1 0 0 1 290.87 76.3743)" fill="#C67441"/>
<rect width="7.02586" height="10.9106" transform="matrix(-1 0 0 1 297.896 65.4637)" fill="#C67441"/>
<rect width="7.02586" height="10.9106" transform="matrix(-1 0 0 1 297.896 87.2841)" fill="#C67441"/>
<rect width="7.02586" height="10.9106" transform="matrix(-1 0 0 1 290.87 32.7318)" fill="#C67441"/>
<rect width="7.02586" height="10.9106" transform="matrix(-1 0 0 1 297.896 43.6423)" fill="#C67441"/>
<rect width="7.02586" height="10.9106" transform="matrix(-1 0 0 1 290.87 54.5527)" fill="#C67441"/>
<rect width="7.02586" height="10.9106" transform="matrix(-1 0 0 1 290.87 76.3743)" fill="#C67441"/>
<rect width="7.02586" height="10.9106" transform="matrix(-1 0 0 1 297.896 65.4637)" fill="#C67441"/>
<rect width="7.02586" height="10.9106" transform="matrix(-1 0 0 1 297.896 87.2841)" fill="#C67441"/>
<rect width="7.02586" height="10.9106" transform="matrix(-1 0 0 1 290.87 98.1952)" fill="#C67441"/>
<rect width="7.02586" height="10.9106" transform="matrix(-1 0 0 1 297.896 109.106)" fill="#C67441"/>
<rect width="7.02586" height="10.9106" transform="matrix(-1 0 0 1 290.87 120.016)" fill="#C67441"/>
<rect width="7.02586" height="10.9106" transform="matrix(-1 0 0 1 290.87 141.837)" fill="#C67441"/>
<rect width="7.02586" height="10.9106" transform="matrix(-1 0 0 1 297.896 130.927)" fill="#C67441"/>
<rect width="7.02586" height="10.9106" transform="matrix(-1 0 0 1 297.896 152.749)" fill="#C67441"/>
<rect width="7.02586" height="10.9106" transform="matrix(-1 0 0 1 290.87 163.659)" fill="#C67441"/>
<rect width="7.02586" height="10.9106" transform="matrix(-1 0 0 1 290.87 185.48)" fill="#C67441"/>
<rect width="7.02586" height="10.9106" transform="matrix(-1 0 0 1 290.87 207.302)" fill="#C67441"/>
<rect width="7.02586" height="10.9106" transform="matrix(-1 0 0 1 297.896 174.57)" fill="#C67441"/>
<rect width="7.02586" height="10.9106" transform="matrix(-1 0 0 1 297.896 196.391)" fill="#C67441"/>
<rect x="14.0519" y="10.9104" width="7.02586" height="218.212" fill="#F2BE85"/>
<rect x="304.922" y="10.9104" width="7.02586" height="218.212" fill="#F2BE85"/>
<rect x="42.1549" y="32.7318" width="241.69" height="185.48" fill="#F2BE85"/>
<rect width="7.02586" height="10.9106" transform="matrix(-1 0 0 1 297.896 207.302)" fill="#F2BE85"/>
</svg>
