<svg width="141" height="63" viewBox="0 0 141 63" fill="none" xmlns="http://www.w3.org/2000/svg">
<rect x="12.1552" y="5.20825" width="106.358" height="2.60416" fill="#C7763B"/>
<rect x="12.1552" y="52.0831" width="106.358" height="2.60416" fill="#C7763B"/>
<rect x="9.11633" y="5.20825" width="3.03879" height="52.0832" fill="#C67441"/>
<rect x="3.03876" y="2.60413" width="3.03879" height="52.0832" fill="#C67441"/>
<rect y="2.60419" width="3.03879" height="57.2916" fill="#853F39"/>
<rect x="12.1552" y="5.20825" width="3.03879" height="2.60416" fill="#853F39"/>
<rect x="3.03876" width="3.03879" height="2.60416" fill="#853F39"/>
<rect x="6.07758" width="3.03879" height="2.60416" fill="#853F39"/>
<rect x="9.11633" y="2.60413" width="3.03879" height="2.60416" fill="#853F39"/>
<rect x="15.194" y="5.20825" width="3.03879" height="2.60416" fill="#853F39"/>
<rect x="3.03876" y="59.8956" width="3.03879" height="2.60416" fill="#853F39"/>
<rect x="6.07758" y="59.8956" width="3.03879" height="2.60416" fill="#853F39"/>
<rect x="9.11633" y="57.2915" width="3.03879" height="2.60416" fill="#853F39"/>
<rect x="3.03876" y="54.6874" width="3.03879" height="2.60416" fill="#853F39"/>
<rect x="6.07758" y="54.6874" width="3.03879" height="2.60416" fill="#853F39"/>
<rect x="21.2715" y="5.20825" width="3.03879" height="2.60416" fill="#853F39"/>
<rect x="15.194" y="52.0831" width="3.03879" height="2.60416" fill="#853F39"/>
<rect x="18.2328" y="52.0831" width="3.03879" height="2.60416" fill="#853F39"/>
<rect x="24.3104" y="52.0831" width="3.03879" height="2.60416" fill="#853F39"/>
<rect x="3.03876" y="57.2915" width="6.07759" height="2.60416" fill="#C67441"/>
<rect x="15.194" y="7.8125" width="3.03879" height="2.60416" fill="#C67441"/>
<rect x="12.1552" y="10.4166" width="3.03879" height="2.60416" fill="#C67441"/>
<rect x="15.194" y="13.0208" width="3.03879" height="2.60416" fill="#C67441"/>
<rect x="15.194" y="18.2291" width="3.03879" height="2.60416" fill="#C67441"/>
<rect x="12.1552" y="15.625" width="3.03879" height="2.60416" fill="#C67441"/>
<rect x="12.1552" y="20.8331" width="3.03879" height="2.60416" fill="#C67441"/>
<rect x="15.194" y="7.8125" width="3.03879" height="2.60416" fill="#C67441"/>
<rect x="12.1552" y="10.4166" width="3.03879" height="2.60416" fill="#C67441"/>
<rect x="15.194" y="13.0208" width="3.03879" height="2.60416" fill="#C67441"/>
<rect x="15.194" y="18.2291" width="3.03879" height="2.60416" fill="#C67441"/>
<rect x="12.1552" y="15.625" width="3.03879" height="2.60416" fill="#C67441"/>
<rect x="12.1552" y="20.8331" width="3.03879" height="2.60416" fill="#C67441"/>
<rect x="15.194" y="23.4374" width="3.03879" height="2.60416" fill="#C67441"/>
<rect x="12.1552" y="26.0416" width="3.03879" height="2.60416" fill="#C67441"/>
<rect x="15.194" y="28.6458" width="3.03879" height="2.60416" fill="#C67441"/>
<rect x="15.194" y="33.854" width="3.03879" height="2.60416" fill="#C67441"/>
<rect x="12.1552" y="31.2499" width="3.03879" height="2.60416" fill="#C67441"/>
<rect x="12.1552" y="36.4583" width="3.03879" height="2.60416" fill="#C67441"/>
<rect x="15.194" y="39.0624" width="3.03879" height="2.60416" fill="#C67441"/>
<rect x="15.194" y="44.2706" width="3.03879" height="2.60416" fill="#C67441"/>
<rect x="15.194" y="49.4791" width="3.03879" height="2.60416" fill="#C67441"/>
<rect x="12.1552" y="41.6666" width="3.03879" height="2.60416" fill="#C67441"/>
<rect x="12.1552" y="46.8749" width="3.03879" height="2.60416" fill="#C67441"/>
<rect width="3.03879" height="2.60416" transform="matrix(-1 0 0 1 15.194 7.8125)" fill="#F2BE85"/>
<rect width="3.03879" height="2.60416" transform="matrix(-1 0 0 1 18.2328 10.4166)" fill="#F2BE85"/>
<rect width="3.03879" height="2.60416" transform="matrix(-1 0 0 1 15.194 13.0208)" fill="#F2BE85"/>
<rect width="3.03879" height="2.60416" transform="matrix(-1 0 0 1 15.194 18.2291)" fill="#F2BE85"/>
<rect width="3.03879" height="2.60416" transform="matrix(-1 0 0 1 18.2328 15.625)" fill="#F2BE85"/>
<rect width="3.03879" height="2.60416" transform="matrix(-1 0 0 1 18.2328 20.8331)" fill="#F2BE85"/>
<rect width="3.03879" height="2.60416" transform="matrix(-1 0 0 1 15.194 7.8125)" fill="#F2BE85"/>
<rect width="3.03879" height="2.60416" transform="matrix(-1 0 0 1 18.2328 10.4166)" fill="#F2BE85"/>
<rect width="3.03879" height="2.60416" transform="matrix(-1 0 0 1 15.194 13.0208)" fill="#F2BE85"/>
<rect width="3.03879" height="2.60416" transform="matrix(-1 0 0 1 15.194 18.2291)" fill="#F2BE85"/>
<rect width="3.03879" height="2.60416" transform="matrix(-1 0 0 1 18.2328 15.625)" fill="#F2BE85"/>
<rect width="3.03879" height="2.60416" transform="matrix(-1 0 0 1 18.2328 20.8331)" fill="#F2BE85"/>
<rect width="3.03879" height="2.60416" transform="matrix(-1 0 0 1 15.194 23.4374)" fill="#F2BE85"/>
<rect width="3.03879" height="2.60416" transform="matrix(-1 0 0 1 18.2328 26.0416)" fill="#F2BE85"/>
<rect width="3.03879" height="2.60416" transform="matrix(-1 0 0 1 15.194 28.6458)" fill="#F2BE85"/>
<rect width="3.03879" height="2.60416" transform="matrix(-1 0 0 1 15.194 33.854)" fill="#F2BE85"/>
<rect width="3.03879" height="2.60416" transform="matrix(-1 0 0 1 18.2328 31.2499)" fill="#F2BE85"/>
<rect width="3.03879" height="2.60416" transform="matrix(-1 0 0 1 18.2328 36.4583)" fill="#F2BE85"/>
<rect width="3.03879" height="2.60416" transform="matrix(-1 0 0 1 15.194 39.0624)" fill="#F2BE85"/>
<rect width="3.03879" height="2.60416" transform="matrix(-1 0 0 1 15.194 44.2706)" fill="#F2BE85"/>
<rect width="3.03879" height="2.60416" transform="matrix(-1 0 0 1 15.194 49.4791)" fill="#F2BE85"/>
<rect width="3.03879" height="2.60416" transform="matrix(-1 0 0 1 18.2328 41.6666)" fill="#F2BE85"/>
<rect width="3.03879" height="2.60416" transform="matrix(-1 0 0 1 18.2328 46.8749)" fill="#F2BE85"/>
<rect width="3.03879" height="2.60416" transform="matrix(-1 0 0 1 125.806 5.20825)" fill="#F2BE85"/>
<rect width="3.03879" height="2.60416" transform="matrix(-1 0 0 1 128.845 7.8125)" fill="#F2BE85"/>
<rect width="3.03879" height="2.60416" transform="matrix(-1 0 0 1 125.806 10.4166)" fill="#F2BE85"/>
<rect width="3.03879" height="2.60416" transform="matrix(-1 0 0 1 125.806 15.625)" fill="#F2BE85"/>
<rect width="3.03879" height="2.60416" transform="matrix(-1 0 0 1 128.845 13.0208)" fill="#F2BE85"/>
<rect width="3.03879" height="2.60416" transform="matrix(-1 0 0 1 128.845 18.2291)" fill="#F2BE85"/>
<rect width="3.03879" height="2.60416" transform="matrix(-1 0 0 1 125.806 5.20825)" fill="#F2BE85"/>
<rect width="3.03879" height="2.60416" transform="matrix(-1 0 0 1 128.845 7.8125)" fill="#F2BE85"/>
<rect width="3.03879" height="2.60416" transform="matrix(-1 0 0 1 125.806 10.4166)" fill="#F2BE85"/>
<rect width="3.03879" height="2.60416" transform="matrix(-1 0 0 1 125.806 15.625)" fill="#F2BE85"/>
<rect width="3.03879" height="2.60416" transform="matrix(-1 0 0 1 128.845 13.0208)" fill="#F2BE85"/>
<rect width="3.03879" height="2.60416" transform="matrix(-1 0 0 1 128.845 18.2291)" fill="#F2BE85"/>
<rect width="3.03879" height="2.60416" transform="matrix(-1 0 0 1 125.806 20.8331)" fill="#F2BE85"/>
<rect width="3.03879" height="2.60416" transform="matrix(-1 0 0 1 128.845 23.4374)" fill="#F2BE85"/>
<rect width="3.03879" height="2.60416" transform="matrix(-1 0 0 1 125.806 26.0416)" fill="#F2BE85"/>
<rect width="3.03879" height="2.60416" transform="matrix(-1 0 0 1 125.806 31.2499)" fill="#F2BE85"/>
<rect width="3.03879" height="2.60416" transform="matrix(-1 0 0 1 128.845 28.6458)" fill="#F2BE85"/>
<rect width="3.03879" height="2.60416" transform="matrix(-1 0 0 1 128.845 33.854)" fill="#F2BE85"/>
<rect width="3.03879" height="2.60416" transform="matrix(-1 0 0 1 125.806 36.4583)" fill="#F2BE85"/>
<rect width="3.03879" height="2.60416" transform="matrix(-1 0 0 1 125.806 41.6666)" fill="#F2BE85"/>
<rect width="3.03879" height="2.60416" transform="matrix(-1 0 0 1 125.806 46.8749)" fill="#F2BE85"/>
<rect width="3.03879" height="2.60416" transform="matrix(-1 0 0 1 128.845 39.0624)" fill="#F2BE85"/>
<rect width="3.03879" height="2.60416" transform="matrix(-1 0 0 1 128.845 44.2706)" fill="#F2BE85"/>
<rect width="104.534" height="2.60416" transform="matrix(-1 0 0 1 128.845 5.20825)" fill="#C7763B"/>
<rect width="95.4181" height="2.60416" transform="matrix(-1 0 0 1 128.845 52.0831)" fill="#C7763B"/>
<rect width="3.03879" height="52.0832" transform="matrix(-1 0 0 1 131.884 5.20825)" fill="#C67441"/>
<rect width="3.03879" height="52.0832" transform="matrix(-1 0 0 1 137.961 2.60413)" fill="#C67441"/>
<rect width="3.03879" height="57.2916" transform="matrix(-1 0 0 1 141 2.60413)" fill="#853F39"/>
<rect width="3.03879" height="2.60416" transform="matrix(-1 0 0 1 128.845 5.20825)" fill="#853F39"/>
<rect width="3.03879" height="2.60416" transform="matrix(-1 0 0 1 137.961 0)" fill="#853F39"/>
<rect width="3.03879" height="2.60416" transform="matrix(-1 0 0 1 134.922 0)" fill="#853F39"/>
<rect width="3.03879" height="2.60416" transform="matrix(-1 0 0 1 131.884 2.60413)" fill="#853F39"/>
<rect width="3.03879" height="2.60416" transform="matrix(-1 0 0 1 125.806 5.20825)" fill="#853F39"/>
<rect width="3.03879" height="2.60416" transform="matrix(-1 0 0 1 137.961 59.8956)" fill="#853F39"/>
<rect width="3.03879" height="2.60416" transform="matrix(-1 0 0 1 134.922 59.8956)" fill="#853F39"/>
<rect width="3.03879" height="2.60416" transform="matrix(-1 0 0 1 131.884 57.2915)" fill="#853F39"/>
<rect width="3.03879" height="2.60416" transform="matrix(-1 0 0 1 137.961 54.6874)" fill="#853F39"/>
<rect width="3.03879" height="2.60416" transform="matrix(-1 0 0 1 134.922 54.6874)" fill="#853F39"/>
<rect width="6.07759" height="2.60416" transform="matrix(-1 0 0 1 137.961 57.2915)" fill="#C67441"/>
<rect width="3.03879" height="2.60416" transform="matrix(-1 0 0 1 125.806 7.8125)" fill="#C67441"/>
<rect width="3.03879" height="2.60416" transform="matrix(-1 0 0 1 128.845 10.4166)" fill="#C67441"/>
<rect width="3.03879" height="2.60416" transform="matrix(-1 0 0 1 125.806 13.0208)" fill="#C67441"/>
<rect width="3.03879" height="2.60416" transform="matrix(-1 0 0 1 125.806 18.2291)" fill="#C67441"/>
<rect width="3.03879" height="2.60416" transform="matrix(-1 0 0 1 128.845 15.625)" fill="#C67441"/>
<rect width="3.03879" height="2.60416" transform="matrix(-1 0 0 1 128.845 20.8331)" fill="#C67441"/>
<rect width="3.03879" height="2.60416" transform="matrix(-1 0 0 1 125.806 7.8125)" fill="#C67441"/>
<rect width="3.03879" height="2.60416" transform="matrix(-1 0 0 1 128.845 10.4166)" fill="#C67441"/>
<rect width="3.03879" height="2.60416" transform="matrix(-1 0 0 1 125.806 13.0208)" fill="#C67441"/>
<rect width="3.03879" height="2.60416" transform="matrix(-1 0 0 1 125.806 18.2291)" fill="#C67441"/>
<rect width="3.03879" height="2.60416" transform="matrix(-1 0 0 1 128.845 15.625)" fill="#C67441"/>
<rect width="3.03879" height="2.60416" transform="matrix(-1 0 0 1 128.845 20.8331)" fill="#C67441"/>
<rect width="3.03879" height="2.60416" transform="matrix(-1 0 0 1 125.806 23.4374)" fill="#C67441"/>
<rect width="3.03879" height="2.60416" transform="matrix(-1 0 0 1 128.845 26.0416)" fill="#C67441"/>
<rect width="3.03879" height="2.60416" transform="matrix(-1 0 0 1 125.806 28.6458)" fill="#C67441"/>
<rect width="3.03879" height="2.60416" transform="matrix(-1 0 0 1 125.806 33.854)" fill="#C67441"/>
<rect width="3.03879" height="2.60416" transform="matrix(-1 0 0 1 128.845 31.2499)" fill="#C67441"/>
<rect width="3.03879" height="2.60416" transform="matrix(-1 0 0 1 128.845 36.4583)" fill="#C67441"/>
<rect width="3.03879" height="2.60416" transform="matrix(-1 0 0 1 125.806 39.0624)" fill="#C67441"/>
<rect width="3.03879" height="2.60416" transform="matrix(-1 0 0 1 125.806 44.2706)" fill="#C67441"/>
<rect width="3.03879" height="2.60416" transform="matrix(-1 0 0 1 125.806 49.4791)" fill="#C67441"/>
<rect width="3.03879" height="2.60416" transform="matrix(-1 0 0 1 128.845 41.6666)" fill="#C67441"/>
<rect width="3.03879" height="2.60416" transform="matrix(-1 0 0 1 128.845 46.8749)" fill="#C67441"/>
<rect x="6.07758" y="2.60413" width="3.03879" height="52.0832" fill="#F2BE85"/>
<rect x="131.884" y="2.60413" width="3.03879" height="52.0832" fill="#F2BE85"/>
<rect x="18.2328" y="7.8125" width="104.534" height="44.2707" fill="#F2BE85"/>
<rect width="3.03879" height="2.60416" transform="matrix(-1 0 0 1 128.845 49.4791)" fill="#F2BE85"/>
<path d="M33.952 41.352V23.336H36.768V20.584H46.496V23.336H49.344V33.128H46.496V35.88H38.016V41.352H33.952ZM38.016 31.496H45.248V24.968H38.016V31.496ZM56.0493 41.352V38.632H53.2333V20.584H57.2973V37H64.5293V34.248H68.6253V38.632H65.7773V41.352H56.0493ZM72.5145 41.352V26.056H75.3305V23.336H78.1465V20.584H82.2425V23.336H85.0585V26.056H87.9065V41.352H83.8105V35.88H76.5785V41.352H72.5145ZM76.5785 31.496H83.8105V27.688H80.9945V24.968H79.3945V27.688H76.5785V31.496ZM95.834 41.352V30.408H93.018V27.688H90.202V20.584H94.266V26.056H97.082V28.808H98.682V26.056H101.498V20.584H105.594V27.688H102.746V30.408H99.93V41.352H95.834Z" fill="#853F39"/>
</svg>
