<svg width="168" height="201" viewBox="0 0 168 201" fill="none" xmlns="http://www.w3.org/2000/svg">
<rect x="14.4825" y="16.7498" width="126.724" height="8.37501" fill="#C7763B"/>
<rect x="14.4825" y="167.5" width="126.724" height="8.37501" fill="#C7763B"/>
<rect x="10.8622" y="16.7498" width="3.62069" height="167.5" fill="#C67441"/>
<rect x="3.62091" y="8.37488" width="3.62069" height="167.5" fill="#C67441"/>
<rect y="8.37488" width="3.62069" height="184.25" fill="#853F39"/>
<rect x="14.4825" y="16.7498" width="3.62069" height="8.37501" fill="#853F39"/>
<rect x="3.62091" width="3.62069" height="8.37501" fill="#853F39"/>
<rect x="7.24127" width="3.62069" height="8.37501" fill="#853F39"/>
<rect x="10.8622" y="8.37488" width="3.62069" height="8.37501" fill="#853F39"/>
<rect x="18.1037" y="16.7498" width="3.62069" height="8.37501" fill="#853F39"/>
<rect x="3.62091" y="192.625" width="3.62069" height="8.37501" fill="#853F39"/>
<rect x="7.24127" y="192.625" width="3.62069" height="8.37501" fill="#853F39"/>
<rect x="10.8622" y="184.25" width="3.62069" height="8.37501" fill="#853F39"/>
<rect x="3.62091" y="175.875" width="3.62069" height="8.37501" fill="#853F39"/>
<rect x="7.24127" y="175.875" width="3.62069" height="8.37501" fill="#853F39"/>
<rect x="25.3445" y="16.7498" width="3.62069" height="8.37501" fill="#853F39"/>
<rect x="18.1037" y="167.5" width="3.62069" height="8.37501" fill="#853F39"/>
<rect x="21.7241" y="167.5" width="3.62069" height="8.37501" fill="#853F39"/>
<rect x="28.9653" y="167.5" width="3.62069" height="8.37501" fill="#853F39"/>
<rect x="3.62091" y="184.25" width="7.24138" height="8.37501" fill="#C67441"/>
<rect x="18.1037" y="25.125" width="3.62069" height="8.37501" fill="#C67441"/>
<rect x="14.4825" y="33.5" width="3.62069" height="8.37501" fill="#C67441"/>
<rect x="18.1037" y="41.8749" width="3.62069" height="8.37501" fill="#C67441"/>
<rect x="18.1037" y="58.625" width="3.62069" height="8.37501" fill="#C67441"/>
<rect x="14.4825" y="50.2502" width="3.62069" height="8.37501" fill="#C67441"/>
<rect x="14.4825" y="66.9995" width="3.62069" height="8.37501" fill="#C67441"/>
<rect x="18.1037" y="25.125" width="3.62069" height="8.37501" fill="#C67441"/>
<rect x="14.4825" y="33.5" width="3.62069" height="8.37501" fill="#C67441"/>
<rect x="18.1037" y="41.8749" width="3.62069" height="8.37501" fill="#C67441"/>
<rect x="18.1037" y="58.625" width="3.62069" height="8.37501" fill="#C67441"/>
<rect x="14.4825" y="50.2502" width="3.62069" height="8.37501" fill="#C67441"/>
<rect x="14.4825" y="66.9995" width="3.62069" height="8.37501" fill="#C67441"/>
<rect x="18.1037" y="75.3749" width="3.62069" height="8.37501" fill="#C67441"/>
<rect x="14.4825" y="83.7501" width="3.62069" height="8.37501" fill="#C67441"/>
<rect x="18.1037" y="92.125" width="3.62069" height="8.37501" fill="#C67441"/>
<rect x="18.1037" y="108.875" width="3.62069" height="8.37501" fill="#C67441"/>
<rect x="14.4825" y="100.5" width="3.62069" height="8.37501" fill="#C67441"/>
<rect x="14.4825" y="117.25" width="3.62069" height="8.37501" fill="#C67441"/>
<rect x="18.1037" y="125.625" width="3.62069" height="8.37501" fill="#C67441"/>
<rect x="18.1037" y="142.375" width="3.62069" height="8.37501" fill="#C67441"/>
<rect x="18.1037" y="159.125" width="3.62069" height="8.37501" fill="#C67441"/>
<rect x="14.4825" y="134" width="3.62069" height="8.37501" fill="#C67441"/>
<rect x="14.4825" y="150.75" width="3.62069" height="8.37501" fill="#C67441"/>
<rect width="3.62069" height="8.37501" transform="matrix(-1 0 0 1 18.1037 25.125)" fill="#F2BE85"/>
<rect width="3.62069" height="8.37501" transform="matrix(-1 0 0 1 21.7241 33.5)" fill="#F2BE85"/>
<rect width="3.62069" height="8.37501" transform="matrix(-1 0 0 1 18.1037 41.8749)" fill="#F2BE85"/>
<rect width="3.62069" height="8.37501" transform="matrix(-1 0 0 1 18.1037 58.625)" fill="#F2BE85"/>
<rect width="3.62069" height="8.37501" transform="matrix(-1 0 0 1 21.7241 50.2502)" fill="#F2BE85"/>
<rect width="3.62069" height="8.37501" transform="matrix(-1 0 0 1 21.7241 66.9995)" fill="#F2BE85"/>
<rect width="3.62069" height="8.37501" transform="matrix(-1 0 0 1 18.1037 25.125)" fill="#F2BE85"/>
<rect width="3.62069" height="8.37501" transform="matrix(-1 0 0 1 21.7241 33.5)" fill="#F2BE85"/>
<rect width="3.62069" height="8.37501" transform="matrix(-1 0 0 1 18.1037 41.8749)" fill="#F2BE85"/>
<rect width="3.62069" height="8.37501" transform="matrix(-1 0 0 1 18.1037 58.625)" fill="#F2BE85"/>
<rect width="3.62069" height="8.37501" transform="matrix(-1 0 0 1 21.7241 50.2502)" fill="#F2BE85"/>
<rect width="3.62069" height="8.37501" transform="matrix(-1 0 0 1 21.7241 66.9995)" fill="#F2BE85"/>
<rect width="3.62069" height="8.37501" transform="matrix(-1 0 0 1 18.1037 75.3749)" fill="#F2BE85"/>
<rect width="3.62069" height="8.37501" transform="matrix(-1 0 0 1 21.7241 83.7501)" fill="#F2BE85"/>
<rect width="3.62069" height="8.37501" transform="matrix(-1 0 0 1 18.1037 92.125)" fill="#F2BE85"/>
<rect width="3.62069" height="8.37501" transform="matrix(-1 0 0 1 18.1037 108.875)" fill="#F2BE85"/>
<rect width="3.62069" height="8.37501" transform="matrix(-1 0 0 1 21.7241 100.5)" fill="#F2BE85"/>
<rect width="3.62069" height="8.37501" transform="matrix(-1 0 0 1 21.7241 117.25)" fill="#F2BE85"/>
<rect width="3.62069" height="8.37501" transform="matrix(-1 0 0 1 18.1037 125.625)" fill="#F2BE85"/>
<rect width="3.62069" height="8.37501" transform="matrix(-1 0 0 1 18.1037 142.375)" fill="#F2BE85"/>
<rect width="3.62069" height="8.37501" transform="matrix(-1 0 0 1 18.1037 159.125)" fill="#F2BE85"/>
<rect width="3.62069" height="8.37501" transform="matrix(-1 0 0 1 21.7241 134)" fill="#F2BE85"/>
<rect width="3.62069" height="8.37501" transform="matrix(-1 0 0 1 21.7241 150.75)" fill="#F2BE85"/>
<rect width="3.62069" height="8.37501" transform="matrix(-1 0 0 1 149.897 16.7498)" fill="#F2BE85"/>
<rect width="3.62069" height="8.37501" transform="matrix(-1 0 0 1 153.517 25.125)" fill="#F2BE85"/>
<rect width="3.62069" height="8.37501" transform="matrix(-1 0 0 1 149.897 33.5)" fill="#F2BE85"/>
<rect width="3.62069" height="8.37501" transform="matrix(-1 0 0 1 149.897 50.2502)" fill="#F2BE85"/>
<rect width="3.62069" height="8.37501" transform="matrix(-1 0 0 1 153.517 41.8749)" fill="#F2BE85"/>
<rect width="3.62069" height="8.37501" transform="matrix(-1 0 0 1 153.517 58.625)" fill="#F2BE85"/>
<rect width="3.62069" height="8.37501" transform="matrix(-1 0 0 1 149.897 16.7498)" fill="#F2BE85"/>
<rect width="3.62069" height="8.37501" transform="matrix(-1 0 0 1 153.517 25.125)" fill="#F2BE85"/>
<rect width="3.62069" height="8.37501" transform="matrix(-1 0 0 1 149.897 33.5)" fill="#F2BE85"/>
<rect width="3.62069" height="8.37501" transform="matrix(-1 0 0 1 149.897 50.2502)" fill="#F2BE85"/>
<rect width="3.62069" height="8.37501" transform="matrix(-1 0 0 1 153.517 41.8749)" fill="#F2BE85"/>
<rect width="3.62069" height="8.37501" transform="matrix(-1 0 0 1 153.517 58.625)" fill="#F2BE85"/>
<rect width="3.62069" height="8.37501" transform="matrix(-1 0 0 1 149.897 66.9995)" fill="#F2BE85"/>
<rect width="3.62069" height="8.37501" transform="matrix(-1 0 0 1 153.517 75.3749)" fill="#F2BE85"/>
<rect width="3.62069" height="8.37501" transform="matrix(-1 0 0 1 149.897 83.7501)" fill="#F2BE85"/>
<rect width="3.62069" height="8.37501" transform="matrix(-1 0 0 1 149.897 100.5)" fill="#F2BE85"/>
<rect width="3.62069" height="8.37501" transform="matrix(-1 0 0 1 153.517 92.125)" fill="#F2BE85"/>
<rect width="3.62069" height="8.37501" transform="matrix(-1 0 0 1 153.517 108.875)" fill="#F2BE85"/>
<rect width="3.62069" height="8.37501" transform="matrix(-1 0 0 1 149.897 117.25)" fill="#F2BE85"/>
<rect width="3.62069" height="8.37501" transform="matrix(-1 0 0 1 149.897 134)" fill="#F2BE85"/>
<rect width="3.62069" height="8.37501" transform="matrix(-1 0 0 1 149.897 150.75)" fill="#F2BE85"/>
<rect width="3.62069" height="8.37501" transform="matrix(-1 0 0 1 153.517 125.625)" fill="#F2BE85"/>
<rect width="3.62069" height="8.37501" transform="matrix(-1 0 0 1 153.517 142.375)" fill="#F2BE85"/>
<rect width="124.552" height="8.37501" transform="matrix(-1 0 0 1 153.517 16.7498)" fill="#C7763B"/>
<rect width="113.69" height="8.37501" transform="matrix(-1 0 0 1 153.517 167.5)" fill="#C7763B"/>
<rect width="3.62069" height="167.5" transform="matrix(-1 0 0 1 157.138 16.7498)" fill="#C67441"/>
<rect width="3.62069" height="167.5" transform="matrix(-1 0 0 1 164.379 8.37488)" fill="#C67441"/>
<rect width="3.62069" height="184.25" transform="matrix(-1 0 0 1 168 8.37488)" fill="#853F39"/>
<rect width="3.62069" height="8.37501" transform="matrix(-1 0 0 1 153.517 16.7498)" fill="#853F39"/>
<rect width="3.62069" height="8.37501" transform="matrix(-1 0 0 1 164.379 0)" fill="#853F39"/>
<rect width="3.62069" height="8.37501" transform="matrix(-1 0 0 1 160.759 0)" fill="#853F39"/>
<rect width="3.62069" height="8.37501" transform="matrix(-1 0 0 1 157.138 8.37488)" fill="#853F39"/>
<rect width="3.62069" height="8.37501" transform="matrix(-1 0 0 1 149.897 16.7498)" fill="#853F39"/>
<rect width="3.62069" height="8.37501" transform="matrix(-1 0 0 1 164.379 192.625)" fill="#853F39"/>
<rect width="3.62069" height="8.37501" transform="matrix(-1 0 0 1 160.759 192.625)" fill="#853F39"/>
<rect width="3.62069" height="8.37501" transform="matrix(-1 0 0 1 157.138 184.25)" fill="#853F39"/>
<rect width="3.62069" height="8.37501" transform="matrix(-1 0 0 1 164.379 175.875)" fill="#853F39"/>
<rect width="3.62069" height="8.37501" transform="matrix(-1 0 0 1 160.759 175.875)" fill="#853F39"/>
<rect width="7.24138" height="8.37501" transform="matrix(-1 0 0 1 164.379 184.25)" fill="#C67441"/>
<rect width="3.62069" height="8.37501" transform="matrix(-1 0 0 1 149.897 25.125)" fill="#C67441"/>
<rect width="3.62069" height="8.37501" transform="matrix(-1 0 0 1 153.517 33.5)" fill="#C67441"/>
<rect width="3.62069" height="8.37501" transform="matrix(-1 0 0 1 149.897 41.8749)" fill="#C67441"/>
<rect width="3.62069" height="8.37501" transform="matrix(-1 0 0 1 149.897 58.625)" fill="#C67441"/>
<rect width="3.62069" height="8.37501" transform="matrix(-1 0 0 1 153.517 50.2502)" fill="#C67441"/>
<rect width="3.62069" height="8.37501" transform="matrix(-1 0 0 1 153.517 66.9995)" fill="#C67441"/>
<rect width="3.62069" height="8.37501" transform="matrix(-1 0 0 1 149.897 25.125)" fill="#C67441"/>
<rect width="3.62069" height="8.37501" transform="matrix(-1 0 0 1 153.517 33.5)" fill="#C67441"/>
<rect width="3.62069" height="8.37501" transform="matrix(-1 0 0 1 149.897 41.8749)" fill="#C67441"/>
<rect width="3.62069" height="8.37501" transform="matrix(-1 0 0 1 149.897 58.625)" fill="#C67441"/>
<rect width="3.62069" height="8.37501" transform="matrix(-1 0 0 1 153.517 50.2502)" fill="#C67441"/>
<rect width="3.62069" height="8.37501" transform="matrix(-1 0 0 1 153.517 66.9995)" fill="#C67441"/>
<rect width="3.62069" height="8.37501" transform="matrix(-1 0 0 1 149.897 75.3749)" fill="#C67441"/>
<rect width="3.62069" height="8.37501" transform="matrix(-1 0 0 1 153.517 83.7501)" fill="#C67441"/>
<rect width="3.62069" height="8.37501" transform="matrix(-1 0 0 1 149.897 92.125)" fill="#C67441"/>
<rect width="3.62069" height="8.37501" transform="matrix(-1 0 0 1 149.897 108.875)" fill="#C67441"/>
<rect width="3.62069" height="8.37501" transform="matrix(-1 0 0 1 153.517 100.5)" fill="#C67441"/>
<rect width="3.62069" height="8.37501" transform="matrix(-1 0 0 1 153.517 117.25)" fill="#C67441"/>
<rect width="3.62069" height="8.37501" transform="matrix(-1 0 0 1 149.897 125.625)" fill="#C67441"/>
<rect width="3.62069" height="8.37501" transform="matrix(-1 0 0 1 149.897 142.375)" fill="#C67441"/>
<rect width="3.62069" height="8.37501" transform="matrix(-1 0 0 1 149.897 159.125)" fill="#C67441"/>
<rect width="3.62069" height="8.37501" transform="matrix(-1 0 0 1 153.517 134)" fill="#C67441"/>
<rect width="3.62069" height="8.37501" transform="matrix(-1 0 0 1 153.517 150.75)" fill="#C67441"/>
<rect x="7.24127" y="8.37488" width="3.62069" height="167.5" fill="#F2BE85"/>
<rect x="157.138" y="8.37488" width="3.62069" height="167.5" fill="#F2BE85"/>
<rect x="21.7241" y="25.125" width="124.552" height="142.375" fill="#F2BE85"/>
<rect width="3.62069" height="8.37501" transform="matrix(-1 0 0 1 153.517 159.125)" fill="#F2BE85"/>
<path d="M67.8976 101.176V99.816H66.4896V97.064H65.0656V93.528H67.0976V96.248H68.5056V99H69.3056V96.248H70.7136V93.528H72.7616V97.064H71.3376V99.816H69.9296V101.176H67.8976ZM74.4135 101.176V99H80.0615V98.44H75.8215V97.064H74.4135V94.904H75.8215V93.528H82.1095V95.704H76.4455V96.248H80.6855V97.624H82.1095V99.816H80.6855V101.176H74.4135ZM87.2573 101.176V99H88.6653V92.984H87.2573V90.792H92.1213V92.984H90.6973V99H92.1213V101.176H87.2573ZM94.0698 101.176V93.528H95.4778V92.168H96.8858V90.792H98.9338V92.168H100.342V93.528H101.766V101.176H99.7178V98.44H96.1018V101.176H94.0698ZM96.1018 96.248H99.7178V94.344H98.3098V92.984H97.5098V94.344H96.1018V96.248Z" fill="#853F39"/>
</svg>
