<svg width="168" height="201" viewBox="0 0 168 201" fill="none" xmlns="http://www.w3.org/2000/svg">
<rect x="14.4825" y="16.7498" width="126.724" height="8.37501" fill="#C7763B"/>
<rect x="14.4825" y="167.5" width="126.724" height="8.37501" fill="#C7763B"/>
<rect x="10.8622" y="16.7498" width="3.62069" height="167.5" fill="#C67441"/>
<rect x="3.62091" y="8.37488" width="3.62069" height="167.5" fill="#C67441"/>
<rect y="8.37488" width="3.62069" height="184.25" fill="#853F39"/>
<rect x="14.4825" y="16.7498" width="3.62069" height="8.37501" fill="#853F39"/>
<rect x="3.62091" width="3.62069" height="8.37501" fill="#853F39"/>
<rect x="7.24127" width="3.62069" height="8.37501" fill="#853F39"/>
<rect x="10.8622" y="8.37488" width="3.62069" height="8.37501" fill="#853F39"/>
<rect x="18.1037" y="16.7498" width="3.62069" height="8.37501" fill="#853F39"/>
<rect x="3.62091" y="192.625" width="3.62069" height="8.37501" fill="#853F39"/>
<rect x="7.24127" y="192.625" width="3.62069" height="8.37501" fill="#853F39"/>
<rect x="10.8622" y="184.25" width="3.62069" height="8.37501" fill="#853F39"/>
<rect x="3.62091" y="175.875" width="3.62069" height="8.37501" fill="#853F39"/>
<rect x="7.24127" y="175.875" width="3.62069" height="8.37501" fill="#853F39"/>
<rect x="25.3444" y="16.7498" width="3.62069" height="8.37501" fill="#853F39"/>
<rect x="18.1037" y="167.5" width="3.62069" height="8.37501" fill="#853F39"/>
<rect x="21.7241" y="167.5" width="3.62069" height="8.37501" fill="#853F39"/>
<rect x="28.9653" y="167.5" width="3.62069" height="8.37501" fill="#853F39"/>
<rect x="3.62091" y="184.25" width="7.24138" height="8.37501" fill="#C67441"/>
<rect x="18.1037" y="25.125" width="3.62069" height="8.37501" fill="#C67441"/>
<rect x="14.4825" y="33.5" width="3.62069" height="8.37501" fill="#C67441"/>
<rect x="18.1037" y="41.8749" width="3.62069" height="8.37501" fill="#C67441"/>
<rect x="18.1037" y="58.625" width="3.62069" height="8.37501" fill="#C67441"/>
<rect x="14.4825" y="50.2502" width="3.62069" height="8.37501" fill="#C67441"/>
<rect x="14.4825" y="66.9995" width="3.62069" height="8.37501" fill="#C67441"/>
<rect x="18.1037" y="25.125" width="3.62069" height="8.37501" fill="#C67441"/>
<rect x="14.4825" y="33.5" width="3.62069" height="8.37501" fill="#C67441"/>
<rect x="18.1037" y="41.8749" width="3.62069" height="8.37501" fill="#C67441"/>
<rect x="18.1037" y="58.625" width="3.62069" height="8.37501" fill="#C67441"/>
<rect x="14.4825" y="50.2502" width="3.62069" height="8.37501" fill="#C67441"/>
<rect x="14.4825" y="66.9995" width="3.62069" height="8.37501" fill="#C67441"/>
<rect x="18.1037" y="75.3749" width="3.62069" height="8.37501" fill="#C67441"/>
<rect x="14.4825" y="83.7501" width="3.62069" height="8.37501" fill="#C67441"/>
<rect x="18.1037" y="92.125" width="3.62069" height="8.37501" fill="#C67441"/>
<rect x="18.1037" y="108.875" width="3.62069" height="8.37501" fill="#C67441"/>
<rect x="14.4825" y="100.5" width="3.62069" height="8.37501" fill="#C67441"/>
<rect x="14.4825" y="117.25" width="3.62069" height="8.37501" fill="#C67441"/>
<rect x="18.1037" y="125.625" width="3.62069" height="8.37501" fill="#C67441"/>
<rect x="18.1037" y="142.375" width="3.62069" height="8.37501" fill="#C67441"/>
<rect x="18.1037" y="159.125" width="3.62069" height="8.37501" fill="#C67441"/>
<rect x="14.4825" y="134" width="3.62069" height="8.37501" fill="#C67441"/>
<rect x="14.4825" y="150.75" width="3.62069" height="8.37501" fill="#C67441"/>
<rect width="3.62069" height="8.37501" transform="matrix(-1 0 0 1 18.1037 25.125)" fill="#F2BE85"/>
<rect width="3.62069" height="8.37501" transform="matrix(-1 0 0 1 21.7241 33.5)" fill="#F2BE85"/>
<rect width="3.62069" height="8.37501" transform="matrix(-1 0 0 1 18.1037 41.8749)" fill="#F2BE85"/>
<rect width="3.62069" height="8.37501" transform="matrix(-1 0 0 1 18.1037 58.625)" fill="#F2BE85"/>
<rect width="3.62069" height="8.37501" transform="matrix(-1 0 0 1 21.7241 50.2502)" fill="#F2BE85"/>
<rect width="3.62069" height="8.37501" transform="matrix(-1 0 0 1 21.7241 66.9995)" fill="#F2BE85"/>
<rect width="3.62069" height="8.37501" transform="matrix(-1 0 0 1 18.1037 25.125)" fill="#F2BE85"/>
<rect width="3.62069" height="8.37501" transform="matrix(-1 0 0 1 21.7241 33.5)" fill="#F2BE85"/>
<rect width="3.62069" height="8.37501" transform="matrix(-1 0 0 1 18.1037 41.8749)" fill="#F2BE85"/>
<rect width="3.62069" height="8.37501" transform="matrix(-1 0 0 1 18.1037 58.625)" fill="#F2BE85"/>
<rect width="3.62069" height="8.37501" transform="matrix(-1 0 0 1 21.7241 50.2502)" fill="#F2BE85"/>
<rect width="3.62069" height="8.37501" transform="matrix(-1 0 0 1 21.7241 66.9995)" fill="#F2BE85"/>
<rect width="3.62069" height="8.37501" transform="matrix(-1 0 0 1 18.1037 75.3749)" fill="#F2BE85"/>
<rect width="3.62069" height="8.37501" transform="matrix(-1 0 0 1 21.7241 83.7501)" fill="#F2BE85"/>
<rect width="3.62069" height="8.37501" transform="matrix(-1 0 0 1 18.1037 92.125)" fill="#F2BE85"/>
<rect width="3.62069" height="8.37501" transform="matrix(-1 0 0 1 18.1037 108.875)" fill="#F2BE85"/>
<rect width="3.62069" height="8.37501" transform="matrix(-1 0 0 1 21.7241 100.5)" fill="#F2BE85"/>
<rect width="3.62069" height="8.37501" transform="matrix(-1 0 0 1 21.7241 117.25)" fill="#F2BE85"/>
<rect width="3.62069" height="8.37501" transform="matrix(-1 0 0 1 18.1037 125.625)" fill="#F2BE85"/>
<rect width="3.62069" height="8.37501" transform="matrix(-1 0 0 1 18.1037 142.375)" fill="#F2BE85"/>
<rect width="3.62069" height="8.37501" transform="matrix(-1 0 0 1 18.1037 159.125)" fill="#F2BE85"/>
<rect width="3.62069" height="8.37501" transform="matrix(-1 0 0 1 21.7241 134)" fill="#F2BE85"/>
<rect width="3.62069" height="8.37501" transform="matrix(-1 0 0 1 21.7241 150.75)" fill="#F2BE85"/>
<rect width="3.62069" height="8.37501" transform="matrix(-1 0 0 1 149.897 16.7498)" fill="#F2BE85"/>
<rect width="3.62069" height="8.37501" transform="matrix(-1 0 0 1 153.517 25.125)" fill="#F2BE85"/>
<rect width="3.62069" height="8.37501" transform="matrix(-1 0 0 1 149.897 33.5)" fill="#F2BE85"/>
<rect width="3.62069" height="8.37501" transform="matrix(-1 0 0 1 149.897 50.2502)" fill="#F2BE85"/>
<rect width="3.62069" height="8.37501" transform="matrix(-1 0 0 1 153.517 41.8749)" fill="#F2BE85"/>
<rect width="3.62069" height="8.37501" transform="matrix(-1 0 0 1 153.517 58.625)" fill="#F2BE85"/>
<rect width="3.62069" height="8.37501" transform="matrix(-1 0 0 1 149.897 16.7498)" fill="#F2BE85"/>
<rect width="3.62069" height="8.37501" transform="matrix(-1 0 0 1 153.517 25.125)" fill="#F2BE85"/>
<rect width="3.62069" height="8.37501" transform="matrix(-1 0 0 1 149.897 33.5)" fill="#F2BE85"/>
<rect width="3.62069" height="8.37501" transform="matrix(-1 0 0 1 149.897 50.2502)" fill="#F2BE85"/>
<rect width="3.62069" height="8.37501" transform="matrix(-1 0 0 1 153.517 41.8749)" fill="#F2BE85"/>
<rect width="3.62069" height="8.37501" transform="matrix(-1 0 0 1 153.517 58.625)" fill="#F2BE85"/>
<rect width="3.62069" height="8.37501" transform="matrix(-1 0 0 1 149.897 66.9995)" fill="#F2BE85"/>
<rect width="3.62069" height="8.37501" transform="matrix(-1 0 0 1 153.517 75.3749)" fill="#F2BE85"/>
<rect width="3.62069" height="8.37501" transform="matrix(-1 0 0 1 149.897 83.7501)" fill="#F2BE85"/>
<rect width="3.62069" height="8.37501" transform="matrix(-1 0 0 1 149.897 100.5)" fill="#F2BE85"/>
<rect width="3.62069" height="8.37501" transform="matrix(-1 0 0 1 153.517 92.125)" fill="#F2BE85"/>
<rect width="3.62069" height="8.37501" transform="matrix(-1 0 0 1 153.517 108.875)" fill="#F2BE85"/>
<rect width="3.62069" height="8.37501" transform="matrix(-1 0 0 1 149.897 117.25)" fill="#F2BE85"/>
<rect width="3.62069" height="8.37501" transform="matrix(-1 0 0 1 149.897 134)" fill="#F2BE85"/>
<rect width="3.62069" height="8.37501" transform="matrix(-1 0 0 1 149.897 150.75)" fill="#F2BE85"/>
<rect width="3.62069" height="8.37501" transform="matrix(-1 0 0 1 153.517 125.625)" fill="#F2BE85"/>
<rect width="3.62069" height="8.37501" transform="matrix(-1 0 0 1 153.517 142.375)" fill="#F2BE85"/>
<rect width="124.552" height="8.37501" transform="matrix(-1 0 0 1 153.517 16.7498)" fill="#C7763B"/>
<rect width="113.69" height="8.37501" transform="matrix(-1 0 0 1 153.517 167.5)" fill="#C7763B"/>
<rect width="3.62069" height="167.5" transform="matrix(-1 0 0 1 157.138 16.7498)" fill="#C67441"/>
<rect width="3.62069" height="167.5" transform="matrix(-1 0 0 1 164.379 8.37488)" fill="#C67441"/>
<rect width="3.62069" height="184.25" transform="matrix(-1 0 0 1 168 8.37488)" fill="#853F39"/>
<rect width="3.62069" height="8.37501" transform="matrix(-1 0 0 1 153.517 16.7498)" fill="#853F39"/>
<rect width="3.62069" height="8.37501" transform="matrix(-1 0 0 1 164.379 0)" fill="#853F39"/>
<rect width="3.62069" height="8.37501" transform="matrix(-1 0 0 1 160.759 0)" fill="#853F39"/>
<rect width="3.62069" height="8.37501" transform="matrix(-1 0 0 1 157.138 8.37488)" fill="#853F39"/>
<rect width="3.62069" height="8.37501" transform="matrix(-1 0 0 1 149.897 16.7498)" fill="#853F39"/>
<rect width="3.62069" height="8.37501" transform="matrix(-1 0 0 1 164.379 192.625)" fill="#853F39"/>
<rect width="3.62069" height="8.37501" transform="matrix(-1 0 0 1 160.759 192.625)" fill="#853F39"/>
<rect width="3.62069" height="8.37501" transform="matrix(-1 0 0 1 157.138 184.25)" fill="#853F39"/>
<rect width="3.62069" height="8.37501" transform="matrix(-1 0 0 1 164.379 175.875)" fill="#853F39"/>
<rect width="3.62069" height="8.37501" transform="matrix(-1 0 0 1 160.759 175.875)" fill="#853F39"/>
<rect width="7.24138" height="8.37501" transform="matrix(-1 0 0 1 164.379 184.25)" fill="#C67441"/>
<rect width="3.62069" height="8.37501" transform="matrix(-1 0 0 1 149.897 25.125)" fill="#C67441"/>
<rect width="3.62069" height="8.37501" transform="matrix(-1 0 0 1 153.517 33.5)" fill="#C67441"/>
<rect width="3.62069" height="8.37501" transform="matrix(-1 0 0 1 149.897 41.8749)" fill="#C67441"/>
<rect width="3.62069" height="8.37501" transform="matrix(-1 0 0 1 149.897 58.625)" fill="#C67441"/>
<rect width="3.62069" height="8.37501" transform="matrix(-1 0 0 1 153.517 50.2502)" fill="#C67441"/>
<rect width="3.62069" height="8.37501" transform="matrix(-1 0 0 1 153.517 66.9995)" fill="#C67441"/>
<rect width="3.62069" height="8.37501" transform="matrix(-1 0 0 1 149.897 25.125)" fill="#C67441"/>
<rect width="3.62069" height="8.37501" transform="matrix(-1 0 0 1 153.517 33.5)" fill="#C67441"/>
<rect width="3.62069" height="8.37501" transform="matrix(-1 0 0 1 149.897 41.8749)" fill="#C67441"/>
<rect width="3.62069" height="8.37501" transform="matrix(-1 0 0 1 149.897 58.625)" fill="#C67441"/>
<rect width="3.62069" height="8.37501" transform="matrix(-1 0 0 1 153.517 50.2502)" fill="#C67441"/>
<rect width="3.62069" height="8.37501" transform="matrix(-1 0 0 1 153.517 66.9995)" fill="#C67441"/>
<rect width="3.62069" height="8.37501" transform="matrix(-1 0 0 1 149.897 75.3749)" fill="#C67441"/>
<rect width="3.62069" height="8.37501" transform="matrix(-1 0 0 1 153.517 83.7501)" fill="#C67441"/>
<rect width="3.62069" height="8.37501" transform="matrix(-1 0 0 1 149.897 92.125)" fill="#C67441"/>
<rect width="3.62069" height="8.37501" transform="matrix(-1 0 0 1 149.897 108.875)" fill="#C67441"/>
<rect width="3.62069" height="8.37501" transform="matrix(-1 0 0 1 153.517 100.5)" fill="#C67441"/>
<rect width="3.62069" height="8.37501" transform="matrix(-1 0 0 1 153.517 117.25)" fill="#C67441"/>
<rect width="3.62069" height="8.37501" transform="matrix(-1 0 0 1 149.897 125.625)" fill="#C67441"/>
<rect width="3.62069" height="8.37501" transform="matrix(-1 0 0 1 149.897 142.375)" fill="#C67441"/>
<rect width="3.62069" height="8.37501" transform="matrix(-1 0 0 1 149.897 159.125)" fill="#C67441"/>
<rect width="3.62069" height="8.37501" transform="matrix(-1 0 0 1 153.517 134)" fill="#C67441"/>
<rect width="3.62069" height="8.37501" transform="matrix(-1 0 0 1 153.517 150.75)" fill="#C67441"/>
<rect x="7.24127" y="8.37488" width="3.62069" height="167.5" fill="#F2BE85"/>
<rect x="157.138" y="8.37488" width="3.62069" height="167.5" fill="#F2BE85"/>
<rect x="21.7241" y="25.125" width="124.552" height="142.375" fill="#F2BE85"/>
<rect width="3.62069" height="8.37501" transform="matrix(-1 0 0 1 153.517 159.125)" fill="#F2BE85"/>
<path d="M31.2026 101.176V92.168H32.6106V90.792H34.6426V92.168H36.0666V94.904H36.8506V92.168H38.2746V90.792H40.3226V92.168H41.7146V101.176H39.6986V92.984H38.8986V95.704H37.4746V99.816H35.4426V95.704H34.0186V92.984H33.2346V101.176H31.2026ZM45.0793 101.176V99.816H43.6713V94.904H45.0793V93.528H49.9433V94.904H51.3673V99H52.7913V101.176H50.7433V99.816H49.9433V101.176H45.0793ZM45.7033 99H49.3193V95.704H45.7033V99ZM55.7998 101.176V99.816H54.3918V95.704H52.9838V93.528H54.3918V90.792H56.4238V93.528H60.6798V95.704H56.4238V99H60.0558V97.624H62.1038V99.816H60.6798V101.176H55.7998ZM65.1574 101.176V99.816H63.7494V94.904H65.1574V93.528H70.0214V94.904H71.4454V97.064H69.3974V95.704H65.7814V99H69.3974V97.624H71.4454V99.816H70.0214V101.176H65.1574ZM73.0776 101.176V90.792H75.1096V94.904H75.8936V93.528H79.3496V94.904H80.7736V101.176H78.7256V95.704H76.5176V97.064H75.1096V101.176H73.0776ZM82.7182 101.176V93.528H87.5822V94.904H88.3662V93.528H91.8382V94.904H93.2302V101.176H91.2142V95.704H88.9902V101.176H86.9582V95.704H84.7502V101.176H82.7182ZM96.4387 101.176V99.816H95.0307V94.904H96.4387V93.528H101.303V94.904H102.727V99H104.151V101.176H102.103V99.816H101.303V101.176H96.4387ZM97.0627 99H100.679V95.704H97.0627V99ZM105.468 101.176V90.792H107.5V96.248H108.284V94.904H111.116V93.528H113.164V95.704H111.74V97.064H108.908V97.624H111.74V99H113.164V101.176H111.116V99.816H108.284V98.44H107.5V101.176H105.468ZM115.109 101.176V93.528H117.141V101.176H115.109ZM115.109 92.984V90.792H117.141V92.984H115.109ZM118.781 101.176V93.528H125.053V94.904H126.477V101.176H124.429V95.704H120.813V101.176H118.781ZM129.517 103.912V102.552H128.109V100.376H130.141V101.736H133.773V99.816H129.517V98.44H128.109V94.904H129.517V93.528H134.397V94.904H135.805V102.552H134.397V103.912H129.517ZM130.141 97.624H133.773V95.704H130.141V97.624Z" fill="#853F39"/>
</svg>
