<svg width="53" height="13" viewBox="0 0 53 13" fill="none" xmlns="http://www.w3.org/2000/svg">
<rect x="6" y="2" width="3" height="11" fill="#ED1C24"/>
<rect x="9" width="2" height="11" fill="#ED1C24"/>
<rect x="11" width="2" height="9" fill="#ED1C24"/>
<rect x="13" y="2" width="2" height="5" fill="#ED1C24"/>
<rect x="4" width="2" height="11" fill="#ED1C24"/>
<rect x="2" width="2" height="9" fill="#ED1C24"/>
<rect y="2" width="2" height="5" fill="#ED1C24"/>
<rect x="25" y="2" width="3" height="11" fill="#ED1C24"/>
<rect x="28" width="2" height="11" fill="#ED1C24"/>
<rect x="30" width="2" height="9" fill="#ED1C24"/>
<rect x="32" y="2" width="2" height="5" fill="#ED1C24"/>
<rect x="23" width="2" height="11" fill="#ED1C24"/>
<rect x="21" width="2" height="9" fill="#ED1C24"/>
<rect x="19" y="2" width="2" height="5" fill="#ED1C24"/>
<rect x="44" y="2" width="3" height="11" fill="#ED1C24"/>
<rect x="47" width="2" height="11" fill="#ED1C24"/>
<rect x="49" width="2" height="9" fill="#ED1C24"/>
<rect x="51" y="2" width="2" height="5" fill="#ED1C24"/>
<rect x="42" width="2" height="11" fill="#ED1C24"/>
<rect x="40" width="2" height="9" fill="#ED1C24"/>
<rect x="38" y="2" width="2" height="5" fill="#ED1C24"/>
</svg>
