<svg width="315" height="477" viewBox="0 0 315 477" fill="none" xmlns="http://www.w3.org/2000/svg">
<rect x="288.617" y="41.1205" width="359.806" height="13.1189" transform="rotate(90 288.617 41.1205)" fill="#C7763B"/>
<rect x="52.4753" y="41.1205" width="359.806" height="13.1189" transform="rotate(90 52.4753 41.1205)" fill="#C7763B"/>
<rect x="288.617" y="30.8409" width="10.2802" height="262.379" transform="rotate(90 288.617 30.8409)" fill="#C67441"/>
<rect x="301.735" y="10.2803" width="10.2802" height="262.379" transform="rotate(90 301.735 10.2803)" fill="#C67441"/>
<rect x="301.735" width="10.2802" height="288.616" transform="rotate(90 301.735 0)" fill="#853F39"/>
<rect x="288.617" y="41.1205" width="10.2802" height="13.1189" transform="rotate(90 288.617 41.1205)" fill="#853F39"/>
<rect x="314.854" y="10.2803" width="10.2802" height="13.1189" transform="rotate(90 314.854 10.2803)" fill="#853F39"/>
<rect x="314.854" y="20.5607" width="10.2802" height="13.1189" transform="rotate(90 314.854 20.5607)" fill="#853F39"/>
<rect x="301.735" y="30.8409" width="10.2802" height="13.1189" transform="rotate(90 301.735 30.8409)" fill="#853F39"/>
<rect x="288.617" y="51.4012" width="10.2802" height="13.1189" transform="rotate(90 288.617 51.4012)" fill="#853F39"/>
<rect x="13.119" y="10.2803" width="10.2802" height="13.1189" transform="rotate(90 13.119 10.2803)" fill="#853F39"/>
<rect x="13.119" y="20.5607" width="10.2802" height="13.1189" transform="rotate(90 13.119 20.5607)" fill="#853F39"/>
<rect x="26.2374" y="30.8409" width="10.2802" height="13.1189" transform="rotate(90 26.2374 30.8409)" fill="#853F39"/>
<rect x="39.3564" y="10.2803" width="10.2802" height="13.1189" transform="rotate(90 39.3564 10.2803)" fill="#853F39"/>
<rect x="39.3564" y="20.5607" width="10.2802" height="13.1189" transform="rotate(90 39.3564 20.5607)" fill="#853F39"/>
<rect x="288.617" y="71.9609" width="10.2802" height="13.1189" transform="rotate(90 288.617 71.9609)" fill="#853F39"/>
<rect x="52.4753" y="51.4012" width="10.2802" height="13.1189" transform="rotate(90 52.4753 51.4012)" fill="#853F39"/>
<rect x="52.4753" y="61.6807" width="10.2802" height="13.1189" transform="rotate(90 52.4753 61.6807)" fill="#853F39"/>
<rect x="52.4753" y="82.2412" width="10.2802" height="13.1189" transform="rotate(90 52.4753 82.2412)" fill="#853F39"/>
<rect x="26.2374" y="10.2803" width="20.5603" height="13.1189" transform="rotate(90 26.2374 10.2803)" fill="#C67441"/>
<rect x="275.497" y="51.4012" width="10.2802" height="13.1189" transform="rotate(90 275.497 51.4012)" fill="#C67441"/>
<rect x="262.379" y="41.1205" width="10.2802" height="13.1189" transform="rotate(90 262.379 41.1205)" fill="#C67441"/>
<rect x="249.26" y="51.4012" width="10.2802" height="13.1189" transform="rotate(90 249.26 51.4012)" fill="#C67441"/>
<rect x="223.022" y="51.4012" width="10.2802" height="13.1189" transform="rotate(90 223.022 51.4012)" fill="#C67441"/>
<rect x="236.14" y="41.1205" width="10.2802" height="13.1189" transform="rotate(90 236.14 41.1205)" fill="#C67441"/>
<rect x="209.903" y="41.1205" width="10.2802" height="13.1189" transform="rotate(90 209.903 41.1205)" fill="#C67441"/>
<rect x="275.497" y="51.4012" width="10.2802" height="13.1189" transform="rotate(90 275.497 51.4012)" fill="#C67441"/>
<rect x="262.379" y="41.1205" width="10.2802" height="13.1189" transform="rotate(90 262.379 41.1205)" fill="#C67441"/>
<rect x="249.26" y="51.4012" width="10.2802" height="13.1189" transform="rotate(90 249.26 51.4012)" fill="#C67441"/>
<rect x="223.022" y="51.4012" width="10.2802" height="13.1189" transform="rotate(90 223.022 51.4012)" fill="#C67441"/>
<rect x="236.14" y="41.1205" width="10.2802" height="13.1189" transform="rotate(90 236.14 41.1205)" fill="#C67441"/>
<rect x="209.903" y="41.1205" width="10.2802" height="13.1189" transform="rotate(90 209.903 41.1205)" fill="#C67441"/>
<rect x="196.784" y="51.4012" width="10.2802" height="13.1189" transform="rotate(90 196.784 51.4012)" fill="#C67441"/>
<rect x="183.665" y="41.1205" width="10.2802" height="13.1189" transform="rotate(90 183.665 41.1205)" fill="#C67441"/>
<rect x="170.546" y="51.4012" width="10.2802" height="13.1189" transform="rotate(90 170.546 51.4012)" fill="#C67441"/>
<rect x="144.308" y="51.4012" width="10.2802" height="13.1189" transform="rotate(90 144.308 51.4012)" fill="#C67441"/>
<rect x="157.427" y="41.1205" width="10.2802" height="13.1189" transform="rotate(90 157.427 41.1205)" fill="#C67441"/>
<rect x="131.189" y="41.1205" width="10.2802" height="13.1189" transform="rotate(90 131.189 41.1205)" fill="#C67441"/>
<rect x="118.07" y="51.4012" width="10.2802" height="13.1189" transform="rotate(90 118.07 51.4012)" fill="#C67441"/>
<rect x="91.8323" y="51.4012" width="10.2802" height="13.1189" transform="rotate(90 91.8323 51.4012)" fill="#C67441"/>
<rect x="65.5938" y="51.4012" width="10.2802" height="13.1189" transform="rotate(90 65.5938 51.4012)" fill="#C67441"/>
<rect x="104.951" y="41.1205" width="10.2802" height="13.1189" transform="rotate(90 104.951 41.1205)" fill="#C67441"/>
<rect x="78.7133" y="41.1205" width="10.2802" height="13.1189" transform="rotate(90 78.7133 41.1205)" fill="#C67441"/>
<rect width="10.2802" height="13.1189" transform="matrix(0 -1 -1 0 275.497 51.4012)" fill="#F2BE85"/>
<rect width="10.2802" height="13.1189" transform="matrix(0 -1 -1 0 262.379 61.6807)" fill="#F2BE85"/>
<rect width="10.2802" height="13.1189" transform="matrix(0 -1 -1 0 249.26 51.4012)" fill="#F2BE85"/>
<rect width="10.2802" height="13.1189" transform="matrix(0 -1 -1 0 223.022 51.4012)" fill="#F2BE85"/>
<rect width="10.2802" height="13.1189" transform="matrix(0 -1 -1 0 236.14 61.6807)" fill="#F2BE85"/>
<rect width="10.2802" height="13.1189" transform="matrix(0 -1 -1 0 209.903 61.6807)" fill="#F2BE85"/>
<rect width="10.2802" height="13.1189" transform="matrix(0 -1 -1 0 275.497 51.4012)" fill="#F2BE85"/>
<rect width="10.2802" height="13.1189" transform="matrix(0 -1 -1 0 262.379 61.6807)" fill="#F2BE85"/>
<rect width="10.2802" height="13.1189" transform="matrix(0 -1 -1 0 249.26 51.4012)" fill="#F2BE85"/>
<rect width="10.2802" height="13.1189" transform="matrix(0 -1 -1 0 223.022 51.4012)" fill="#F2BE85"/>
<rect width="10.2802" height="13.1189" transform="matrix(0 -1 -1 0 236.14 61.6807)" fill="#F2BE85"/>
<rect width="10.2802" height="13.1189" transform="matrix(0 -1 -1 0 209.903 61.6807)" fill="#F2BE85"/>
<rect width="10.2802" height="13.1189" transform="matrix(0 -1 -1 0 196.784 51.4012)" fill="#F2BE85"/>
<rect width="10.2802" height="13.1189" transform="matrix(0 -1 -1 0 183.665 61.6807)" fill="#F2BE85"/>
<rect width="10.2802" height="13.1189" transform="matrix(0 -1 -1 0 170.546 51.4012)" fill="#F2BE85"/>
<rect width="10.2802" height="13.1189" transform="matrix(0 -1 -1 0 144.308 51.4012)" fill="#F2BE85"/>
<rect width="10.2802" height="13.1189" transform="matrix(0 -1 -1 0 157.427 61.6807)" fill="#F2BE85"/>
<rect width="10.2802" height="13.1189" transform="matrix(0 -1 -1 0 131.189 61.6807)" fill="#F2BE85"/>
<rect width="10.2802" height="13.1189" transform="matrix(0 -1 -1 0 118.07 51.4012)" fill="#F2BE85"/>
<rect width="10.2802" height="13.1189" transform="matrix(0 -1 -1 0 91.8323 51.4012)" fill="#F2BE85"/>
<rect width="10.2802" height="13.1189" transform="matrix(0 -1 -1 0 65.5938 51.4012)" fill="#F2BE85"/>
<rect width="10.2802" height="13.1189" transform="matrix(0 -1 -1 0 104.951 61.6807)" fill="#F2BE85"/>
<rect width="10.2802" height="13.1189" transform="matrix(0 -1 -1 0 78.7133 61.6807)" fill="#F2BE85"/>
<rect width="10.2802" height="13.1189" transform="matrix(0 -1 -1 0 288.617 425.599)" fill="#F2BE85"/>
<rect width="10.2802" height="13.1189" transform="matrix(0 -1 -1 0 275.497 435.879)" fill="#F2BE85"/>
<rect width="10.2802" height="13.1189" transform="matrix(0 -1 -1 0 262.379 425.599)" fill="#F2BE85"/>
<rect width="10.2802" height="13.1189" transform="matrix(0 -1 -1 0 236.14 425.599)" fill="#F2BE85"/>
<rect width="10.2802" height="13.1189" transform="matrix(0 -1 -1 0 249.26 435.879)" fill="#F2BE85"/>
<rect width="10.2802" height="13.1189" transform="matrix(0 -1 -1 0 223.022 435.879)" fill="#F2BE85"/>
<rect width="10.2802" height="13.1189" transform="matrix(0 -1 -1 0 288.617 425.599)" fill="#F2BE85"/>
<rect width="10.2802" height="13.1189" transform="matrix(0 -1 -1 0 275.497 435.879)" fill="#F2BE85"/>
<rect width="10.2802" height="13.1189" transform="matrix(0 -1 -1 0 262.379 425.599)" fill="#F2BE85"/>
<rect width="10.2802" height="13.1189" transform="matrix(0 -1 -1 0 236.14 425.599)" fill="#F2BE85"/>
<rect width="10.2802" height="13.1189" transform="matrix(0 -1 -1 0 249.26 435.879)" fill="#F2BE85"/>
<rect width="10.2802" height="13.1189" transform="matrix(0 -1 -1 0 223.022 435.879)" fill="#F2BE85"/>
<rect width="10.2802" height="13.1189" transform="matrix(0 -1 -1 0 209.903 425.599)" fill="#F2BE85"/>
<rect width="10.2802" height="13.1189" transform="matrix(0 -1 -1 0 196.784 435.879)" fill="#F2BE85"/>
<rect width="10.2802" height="13.1189" transform="matrix(0 -1 -1 0 183.665 425.599)" fill="#F2BE85"/>
<rect width="10.2802" height="13.1189" transform="matrix(0 -1 -1 0 157.427 425.599)" fill="#F2BE85"/>
<rect width="10.2802" height="13.1189" transform="matrix(0 -1 -1 0 170.546 435.879)" fill="#F2BE85"/>
<rect width="10.2802" height="13.1189" transform="matrix(0 -1 -1 0 144.308 435.879)" fill="#F2BE85"/>
<rect width="10.2802" height="13.1189" transform="matrix(0 -1 -1 0 131.189 425.599)" fill="#F2BE85"/>
<rect width="10.2802" height="13.1189" transform="matrix(0 -1 -1 0 104.951 425.599)" fill="#F2BE85"/>
<rect width="10.2802" height="13.1189" transform="matrix(0 -1 -1 0 78.7133 425.599)" fill="#F2BE85"/>
<rect width="10.2802" height="13.1189" transform="matrix(0 -1 -1 0 118.07 435.879)" fill="#F2BE85"/>
<rect width="10.2802" height="13.1189" transform="matrix(0 -1 -1 0 91.8323 435.879)" fill="#F2BE85"/>
<rect width="353.638" height="13.1189" transform="matrix(0 -1 -1 0 288.617 435.879)" fill="#C7763B"/>
<rect width="322.797" height="13.1189" transform="matrix(0 -1 -1 0 52.4753 435.879)" fill="#C7763B"/>
<rect width="10.2802" height="262.379" transform="matrix(0 -1 -1 0 288.617 446.159)" fill="#C67441"/>
<rect width="10.2802" height="262.379" transform="matrix(0 -1 -1 0 301.735 466.72)" fill="#C67441"/>
<rect width="10.2802" height="288.616" transform="matrix(0 -1 -1 0 301.735 477)" fill="#853F39"/>
<rect width="10.2802" height="13.1189" transform="matrix(0 -1 -1 0 288.617 435.879)" fill="#853F39"/>
<rect width="10.2802" height="13.1189" transform="matrix(0 -1 -1 0 314.854 466.72)" fill="#853F39"/>
<rect width="10.2802" height="13.1189" transform="matrix(0 -1 -1 0 314.854 456.439)" fill="#853F39"/>
<rect width="10.2802" height="13.1189" transform="matrix(0 -1 -1 0 301.735 446.159)" fill="#853F39"/>
<rect width="10.2802" height="13.1189" transform="matrix(0 -1 -1 0 288.617 425.599)" fill="#853F39"/>
<rect width="10.2802" height="13.1189" transform="matrix(0 -1 -1 0 13.119 466.72)" fill="#853F39"/>
<rect width="10.2802" height="13.1189" transform="matrix(0 -1 -1 0 13.119 456.439)" fill="#853F39"/>
<rect width="10.2802" height="13.1189" transform="matrix(0 -1 -1 0 26.2374 446.159)" fill="#853F39"/>
<rect width="10.2802" height="13.1189" transform="matrix(0 -1 -1 0 39.3564 466.72)" fill="#853F39"/>
<rect width="10.2802" height="13.1189" transform="matrix(0 -1 -1 0 39.3564 456.439)" fill="#853F39"/>
<rect width="20.5603" height="13.1189" transform="matrix(0 -1 -1 0 26.2374 466.72)" fill="#C67441"/>
<rect width="10.2802" height="13.1189" transform="matrix(0 -1 -1 0 275.497 425.599)" fill="#C67441"/>
<rect width="10.2802" height="13.1189" transform="matrix(0 -1 -1 0 262.379 435.879)" fill="#C67441"/>
<rect width="10.2802" height="13.1189" transform="matrix(0 -1 -1 0 249.26 425.599)" fill="#C67441"/>
<rect width="10.2802" height="13.1189" transform="matrix(0 -1 -1 0 223.022 425.599)" fill="#C67441"/>
<rect width="10.2802" height="13.1189" transform="matrix(0 -1 -1 0 236.14 435.879)" fill="#C67441"/>
<rect width="10.2802" height="13.1189" transform="matrix(0 -1 -1 0 209.903 435.879)" fill="#C67441"/>
<rect width="10.2802" height="13.1189" transform="matrix(0 -1 -1 0 275.497 425.599)" fill="#C67441"/>
<rect width="10.2802" height="13.1189" transform="matrix(0 -1 -1 0 262.379 435.879)" fill="#C67441"/>
<rect width="10.2802" height="13.1189" transform="matrix(0 -1 -1 0 249.26 425.599)" fill="#C67441"/>
<rect width="10.2802" height="13.1189" transform="matrix(0 -1 -1 0 223.022 425.599)" fill="#C67441"/>
<rect width="10.2802" height="13.1189" transform="matrix(0 -1 -1 0 236.14 435.879)" fill="#C67441"/>
<rect width="10.2802" height="13.1189" transform="matrix(0 -1 -1 0 209.903 435.879)" fill="#C67441"/>
<rect width="10.2802" height="13.1189" transform="matrix(0 -1 -1 0 196.784 425.599)" fill="#C67441"/>
<rect width="10.2802" height="13.1189" transform="matrix(0 -1 -1 0 183.665 435.879)" fill="#C67441"/>
<rect width="10.2802" height="13.1189" transform="matrix(0 -1 -1 0 170.546 425.599)" fill="#C67441"/>
<rect width="10.2802" height="13.1189" transform="matrix(0 -1 -1 0 144.308 425.599)" fill="#C67441"/>
<rect width="10.2802" height="13.1189" transform="matrix(0 -1 -1 0 157.427 435.879)" fill="#C67441"/>
<rect width="10.2802" height="13.1189" transform="matrix(0 -1 -1 0 131.189 435.879)" fill="#C67441"/>
<rect width="10.2802" height="13.1189" transform="matrix(0 -1 -1 0 118.07 425.599)" fill="#C67441"/>
<rect width="10.2802" height="13.1189" transform="matrix(0 -1 -1 0 91.8323 425.599)" fill="#C67441"/>
<rect width="10.2802" height="13.1189" transform="matrix(0 -1 -1 0 65.5938 425.599)" fill="#C67441"/>
<rect width="10.2802" height="13.1189" transform="matrix(0 -1 -1 0 104.951 435.879)" fill="#C67441"/>
<rect width="10.2802" height="13.1189" transform="matrix(0 -1 -1 0 78.7133 435.879)" fill="#C67441"/>
<rect x="301.735" y="20.5607" width="10.2802" height="262.379" transform="rotate(90 301.735 20.5607)" fill="#F2BE85"/>
<rect x="301.735" y="446.159" width="10.2802" height="262.379" transform="rotate(90 301.735 446.159)" fill="#F2BE85"/>
<rect x="275.497" y="61.6807" width="353.638" height="223.022" transform="rotate(90 275.497 61.6807)" fill="#F2BE85"/>
<rect width="10.2802" height="13.1189" transform="matrix(0 -1 -1 0 65.5938 435.879)" fill="#F2BE85"/>
</svg>
