<svg width="62" height="73" viewBox="0 0 62 73" fill="none" xmlns="http://www.w3.org/2000/svg">
<rect y="64" width="19.2" height="5.12" fill="#153D8F"/>
<rect y="49.92" width="7.68" height="14.08" fill="#153D8F"/>
<rect x="3.83984" y="42.2399" width="3.84" height="7.68" fill="#153D8F"/>
<rect x="34.56" y="26.88" width="3.84" height="7.68" fill="#153D8F"/>
<rect x="23.0399" y="26.88" width="3.84" height="7.68" fill="#153D8F"/>
<rect x="3.83984" y="42.2399" width="3.84" height="7.68" fill="#153D8F"/>
<rect x="7.67993" y="38.72" width="3.84" height="7.36" fill="#153D8F"/>
<path d="M11.52 46.08H15.36V57.6H11.52V46.08Z" fill="#5989D7"/>
<path d="M26.8799 53.7599H30.7199V65.2799H26.8799V53.7599Z" fill="#5989D7"/>
<path d="M26.8799 46.08H30.7199V49.92H26.8799V46.08Z" fill="#5989D7"/>
<path d="M42.2399 23.04H46.0799V26.88H42.2399V23.04Z" fill="#5989D7"/>
<path d="M15.36 19.2H42.24V26.88H15.36V19.2Z" fill="#5989D7"/>
<path d="M15.36 7.67999H34.56V11.52H15.36V7.67999Z" fill="#5989D7"/>
<path d="M15.36 3.83997H30.72V7.67997H15.36V3.83997Z" fill="#5989D7"/>
<path d="M7.67993 0H23.0399V3.84H7.67993V0Z" fill="#5989D7"/>
<path d="M23.0399 53.7599H26.8799V65.2799H23.0399V53.7599Z" fill="#5989D7"/>
<path d="M7.67993 49.92H11.5199V57.6H7.67993V49.92Z" fill="#5989D7"/>
<rect x="11.52" y="42.2399" width="3.84" height="3.84" fill="#4876C5"/>
<rect x="26.8799" y="42.2399" width="3.84" height="3.84" fill="#4876C5"/>
<rect x="23.0399" y="46.08" width="3.84" height="3.84" fill="#4876C5"/>
<rect x="19.2" y="46.08" width="3.84" height="3.84" fill="#4876C5"/>
<rect x="15.36" y="46.08" width="3.84" height="3.84" fill="#4876C5"/>
<rect x="23.0399" y="42.2399" width="3.84" height="3.84" fill="#3763B3"/>
<rect x="30.72" y="42.2399" width="3.84" height="3.84" fill="#3763B3"/>
<rect x="19.2" y="42.2399" width="3.84" height="3.84" fill="#3763B3"/>
<rect x="15.36" y="42.2399" width="3.84" height="3.84" fill="#3763B3"/>
<rect width="3.84" height="3.84" transform="matrix(1 0 0 -1 19.2 65.28)" fill="#4876C5"/>
<rect width="3.84" height="3.84" transform="matrix(1 0 0 -1 19.2 61.4399)" fill="#4876C5"/>
<rect width="3.84" height="3.84" transform="matrix(1 0 0 -1 19.2 57.6)" fill="#4876C5"/>
<rect x="7.67993" y="46.08" width="3.84" height="3.84" fill="#4876C5"/>
<rect x="15.36" y="49.92" width="3.84" height="14.08" fill="#2650A1"/>
<rect x="19.2" y="49.92" width="3.84" height="3.84" fill="#2650A1"/>
<rect x="34.56" y="49.92" width="3.84" height="11.52" transform="rotate(90 34.56 49.92)" fill="#153D8F"/>
<rect x="30.72" y="65.28" width="3.84" height="7.68" transform="rotate(90 30.72 65.28)" fill="#153D8F"/>
<rect x="34.56" y="49.92" width="3.84" height="11.52" fill="#4876C5"/>
<rect x="30.72" y="53.7599" width="3.84" height="11.52" fill="#4876C5"/>
<rect x="3.83984" y="19.2" width="11.52" height="7.68" fill="#4876C5"/>
<rect x="3.83984" y="3.83997" width="11.52" height="7.68" fill="#4876C5"/>
<rect y="23.04" width="3.84" height="3.84" fill="#4876C5"/>
<rect y="7.67999" width="3.84" height="7.36" fill="#4876C5"/>
<rect x="11.52" y="69.12" width="7.68" height="3.84" fill="#1A0A03"/>
<rect x="23.0399" y="69.12" width="7.68" height="3.84" fill="#1A0A03"/>
<rect x="38.4" y="53.7599" width="3.84" height="7.68" fill="#FEC7BB"/>
<rect x="23.0399" y="34.5599" width="3.84" height="7.68" fill="#FEC7BB"/>
<rect x="15.36" y="34.5599" width="3.84" height="7.68" fill="#FEC7BB"/>
<rect x="19.2" y="26.88" width="3.84" height="15.36" fill="#FEC7BB"/>
<rect x="34.56" y="34.5599" width="3.84" height="3.84" fill="#FEC7BB"/>
<rect x="30.72" y="26.88" width="3.84" height="15.36" fill="#FEC7BB"/>
<rect x="26.8799" y="26.88" width="3.84" height="15.36" fill="#FEC7BB"/>
<rect x="15.36" y="57.6" width="6.4" height="7.68" transform="rotate(90 15.36 57.6)" fill="#FEC7BB"/>
<rect x="11.52" y="38.4" width="3.84" height="3.84" fill="#611C21"/>
<rect x="3.83984" y="26.88" width="3.84" height="7.68" fill="#611C21"/>
<rect x="11.52" y="26.88" width="3.84" height="3.84" fill="#611C21"/>
<rect x="15.36" y="26.88" width="3.84" height="7.68" fill="#611C21"/>
<rect x="7.67993" y="26.88" width="3.84" height="11.84" fill="#611C21"/>
<rect x="34.56" y="15.36" width="7.68" height="3.84" fill="#865946"/>
<rect x="53.76" y="19.2" width="7.68" height="3.84" fill="#865946"/>
<rect x="46.0799" y="15.36" width="11.52" height="3.84" fill="#865946"/>
<rect x="42.2399" y="19.2" width="7.68" height="3.84" fill="#865946"/>
<rect x="34.56" y="11.52" width="3.84" height="3.84" fill="#865946"/>
<rect x="7.67993" y="11.52" width="7.68" height="7.68" fill="#6A4636"/>
<rect x="53.76" y="23.04" width="7.68" height="3.84" fill="#6A4636"/>
<rect x="49.9199" y="26.88" width="7.68" height="3.84" fill="#6A4636"/>
<rect x="46.0799" y="49.92" width="7.68" height="3.84" transform="rotate(90 46.0799 49.92)" fill="#6A4636"/>
<rect x="46.0799" y="42.2399" width="3.84" height="3.84" transform="rotate(90 46.0799 42.2399)" fill="#6A4636"/>
<rect x="46.0799" y="30.72" width="3.84" height="3.84" transform="rotate(90 46.0799 30.72)" fill="#6A4636"/>
<rect x="15.36" y="11.52" width="7.68" height="7.68" fill="#865946"/>
<rect x="46.0799" y="57.6" width="3.84" height="3.84" transform="rotate(90 46.0799 57.6)" fill="#5C3C2F"/>
<rect x="42.2399" y="46.08" width="3.84" height="3.84" fill="#865946"/>
<rect x="42.2399" y="34.5599" width="3.84" height="7.68" fill="#865946"/>
<rect x="42.2399" y="26.88" width="3.84" height="3.84" fill="#865946"/>
<rect x="42.2399" y="61.4399" width="3.84" height="3.84" fill="#865946"/>
<rect x="23.0399" y="11.52" width="3.84" height="7.68" fill="#55A5A3"/>
<rect x="26.8799" y="11.52" width="7.68" height="7.68" fill="#70D1C9"/>
<rect x="11.52" y="31.0399" width="3.84" height="7.68" fill="#F0B8B8"/>
<rect x="30.72" y="46.08" width="3.84" height="3.84" fill="#4876C5"/>
</svg>
