<svg width="62" height="73" viewBox="0 0 62 73" fill="none" xmlns="http://www.w3.org/2000/svg">
<rect width="3.84" height="7.68" transform="matrix(-1 0 0 1 57.5999 42.24)" fill="#153D8F"/>
<path d="M49.9199 46.08H46.0799V57.6H49.9199V46.08Z" fill="#C71F22"/>
<path d="M34.5601 53.76H30.7201V65.28H34.5601V53.76Z" fill="#C71F22"/>
<path d="M34.5601 46.08H30.7201V49.92H34.5601V46.08Z" fill="#C71F22"/>
<path d="M19.2 23.04H15.36V26.88H19.2V23.04Z" fill="#C71F22"/>
<path d="M46.0798 19.2H19.1998V26.88H46.0798V19.2Z" fill="#C71F22"/>
<path d="M46.0798 7.67999H26.8798V11.52H46.0798V7.67999Z" fill="#C71F22"/>
<path d="M46.0798 3.84003H30.7198V7.68003H46.0798V3.84003Z" fill="#C71F22"/>
<path d="M53.76 0H38.4V3.84H53.76V0Z" fill="#C71F22"/>
<path d="M38.3999 53.76H34.5599V65.28H38.3999V53.76Z" fill="#C71F22"/>
<path d="M53.76 49.92H49.92V57.6H53.76V49.92Z" fill="#C71F22"/>
<rect width="3.84" height="3.84" transform="matrix(-1 0 0 1 38.4 42.24)" fill="#580D27"/>
<rect width="3.84" height="3.84" transform="matrix(-1 0 0 1 30.72 42.24)" fill="#580D27"/>
<rect width="3.84" height="3.84" transform="matrix(-1 0 0 1 42.24 42.24)" fill="#580D27"/>
<rect width="3.84" height="3.84" transform="matrix(-1 0 0 1 46.0799 42.24)" fill="#580D27"/>
<rect width="3.84" height="14.08" transform="matrix(-1 0 0 1 46.0799 49.92)" fill="#580D27"/>
<rect width="3.84" height="3.84" transform="matrix(-1 0 0 1 42.2401 49.92)" fill="#580D27"/>
<rect width="19.2" height="5.12" transform="matrix(-1 0 0 1 61.44 64)" fill="#36052B"/>
<rect width="7.68" height="14.08" transform="matrix(-1 0 0 1 61.44 49.92)" fill="#36052B"/>
<rect width="3.84" height="7.68" transform="matrix(-1 0 0 1 26.88 26.88)" fill="#36052B"/>
<rect width="3.84" height="7.68" transform="matrix(-1 0 0 1 38.4 26.88)" fill="#36052B"/>
<rect width="3.84" height="7.68" transform="matrix(-1 0 0 1 57.5999 42.24)" fill="#36052B"/>
<rect width="3.84" height="7.36" transform="matrix(-1 0 0 1 53.7601 38.72)" fill="#36052B"/>
<rect width="3.84" height="11.52" transform="matrix(0 1 1 0 26.8799 49.92)" fill="#36052B"/>
<rect width="3.84" height="7.68" transform="matrix(0 1 1 0 30.72 65.28)" fill="#36052B"/>
<rect width="7.68" height="3.84" transform="matrix(-1 0 0 1 49.92 69.12)" fill="#1A0A03"/>
<rect width="7.68" height="3.84" transform="matrix(-1 0 0 1 38.4 69.12)" fill="#1A0A03"/>
<rect width="3.84" height="7.68" transform="matrix(-1 0 0 1 23.0401 53.76)" fill="#FEC7BB"/>
<rect width="3.84" height="7.68" transform="matrix(-1 0 0 1 38.4 34.56)" fill="#FEC7BB"/>
<rect width="3.84" height="7.68" transform="matrix(-1 0 0 1 46.0799 34.56)" fill="#FEC7BB"/>
<rect width="3.84" height="15.36" transform="matrix(-1 0 0 1 42.2401 26.88)" fill="#FEC7BB"/>
<rect width="3.84" height="3.84" transform="matrix(-1 0 0 1 26.8799 34.56)" fill="#FEC7BB"/>
<rect width="3.84" height="15.36" transform="matrix(-1 0 0 1 30.72 26.88)" fill="#FEC7BB"/>
<rect width="3.84" height="15.36" transform="matrix(-1 0 0 1 34.5601 26.88)" fill="#FEC7BB"/>
<rect width="6.4" height="7.68" transform="matrix(0 1 1 0 46.0799 57.6)" fill="#FEC7BB"/>
<rect width="3.84" height="3.84" transform="matrix(-1 0 0 1 49.92 38.4)" fill="#611C21"/>
<rect width="3.84" height="7.68" transform="matrix(-1 0 0 1 57.5999 26.88)" fill="#611C21"/>
<rect width="3.84" height="3.84" transform="matrix(-1 0 0 1 49.92 26.88)" fill="#611C21"/>
<rect width="3.84" height="7.68" transform="matrix(-1 0 0 1 46.0799 26.88)" fill="#611C21"/>
<rect width="3.84" height="11.84" transform="matrix(-1 0 0 1 53.7601 26.88)" fill="#611C21"/>
<rect width="7.68" height="3.84" transform="matrix(-1 0 0 1 26.8799 15.36)" fill="#865946"/>
<rect width="7.68" height="3.84" transform="matrix(-1 0 0 1 7.67999 19.2)" fill="#865946"/>
<rect width="11.52" height="3.84" transform="matrix(-1 0 0 1 15.3599 15.36)" fill="#865946"/>
<rect width="7.68" height="3.84" transform="matrix(-1 0 0 1 19.2 19.2)" fill="#865946"/>
<rect width="3.84" height="3.84" transform="matrix(-1 0 0 1 26.8799 11.52)" fill="#865946"/>
<rect width="7.68" height="7.68" transform="matrix(-1 0 0 1 53.7601 11.52)" fill="#6A4636"/>
<rect width="7.68" height="3.84" transform="matrix(-1 0 0 1 7.67999 23.04)" fill="#6A4636"/>
<rect width="7.68" height="3.84" transform="matrix(-1 0 0 1 11.5201 26.88)" fill="#6A4636"/>
<rect width="7.68" height="3.84" transform="matrix(0 1 1 0 15.3599 49.92)" fill="#6A4636"/>
<rect width="3.84" height="3.84" transform="matrix(0 1 1 0 15.3599 42.24)" fill="#6A4636"/>
<rect width="3.84" height="3.84" transform="matrix(0 1 1 0 15.3599 30.72)" fill="#6A4636"/>
<rect width="7.68" height="7.68" transform="matrix(-1 0 0 1 46.0799 11.52)" fill="#865946"/>
<rect width="3.84" height="3.84" transform="matrix(0 1 1 0 15.3599 57.6)" fill="#5C3C2F"/>
<rect width="3.84" height="3.84" transform="matrix(-1 0 0 1 19.2 46.08)" fill="#865946"/>
<rect width="3.84" height="7.68" transform="matrix(-1 0 0 1 19.2 34.56)" fill="#865946"/>
<rect width="3.84" height="3.84" transform="matrix(-1 0 0 1 19.2 26.88)" fill="#865946"/>
<rect width="3.84" height="3.84" transform="matrix(-1 0 0 1 19.2 61.44)" fill="#865946"/>
<rect width="3.84" height="7.68" transform="matrix(-1 0 0 1 38.4 11.52)" fill="#D26E0A"/>
<rect width="7.68" height="7.68" transform="matrix(-1 0 0 1 34.5601 11.52)" fill="#F29B14"/>
<rect width="3.84" height="7.68" transform="matrix(-1 0 0 1 49.92 31.04)" fill="#F0B8B8"/>
<rect width="3.84" height="3.84" transform="matrix(-1 0 0 1 49.92 42.24)" fill="#7C1327"/>
<rect width="3.84" height="3.84" transform="matrix(-1 0 0 1 34.5601 42.24)" fill="#7C1327"/>
<rect width="3.84" height="3.84" transform="matrix(-1 0 0 1 38.4 46.08)" fill="#7C1327"/>
<rect width="3.84" height="3.84" transform="matrix(-1 0 0 1 42.2401 46.08)" fill="#7C1327"/>
<rect width="3.84" height="3.84" transform="matrix(-1 0 0 1 46.0799 46.08)" fill="#7C1327"/>
<rect x="42.2401" y="65.28" width="3.84" height="3.84" transform="rotate(180 42.2401 65.28)" fill="#7C1327"/>
<rect x="42.2401" y="61.44" width="3.84" height="3.84" transform="rotate(180 42.2401 61.44)" fill="#7C1327"/>
<rect x="42.2401" y="57.6" width="3.84" height="3.84" transform="rotate(180 42.2401 57.6)" fill="#7C1327"/>
<rect width="3.84" height="3.84" transform="matrix(-1 0 0 1 53.7601 46.08)" fill="#7C1327"/>
<rect width="3.84" height="11.52" transform="matrix(-1 0 0 1 26.8799 49.92)" fill="#7C1327"/>
<rect width="3.84" height="11.52" transform="matrix(-1 0 0 1 30.72 53.76)" fill="#7C1327"/>
<rect width="11.52" height="7.68" transform="matrix(-1 0 0 1 57.5999 19.2)" fill="#7C1327"/>
<rect width="11.52" height="7.68" transform="matrix(-1 0 0 1 57.6 3.84003)" fill="#7C1327"/>
<rect width="3.84" height="3.84" transform="matrix(-1 0 0 1 61.44 23.04)" fill="#7C1327"/>
<rect width="3.84" height="7.36" transform="matrix(-1 0 0 1 61.44 7.67999)" fill="#7C1327"/>
<rect width="3.84" height="3.84" transform="matrix(-1 0 0 1 30.72 46.08)" fill="#7C1327"/>
</svg>
